<svg xmlns="http://www.w3.org/2000/svg" xmlns:xlink="http://www.w3.org/1999/xlink" width="500" zoomAndPan="magnify" viewBox="0 0 375 149.999998" height="200" preserveAspectRatio="xMidYMid meet" version="1.0"><defs><g/><clipPath id="35c2524ea5"><path d="M 153 84 L 158 84 L 158 87.390625 L 153 87.390625 Z M 153 84 " clip-rule="nonzero"/></clipPath><clipPath id="a8c2a453ce"><path d="M 147 72.390625 L 158 72.390625 L 158 76 L 147 76 Z M 147 72.390625 " clip-rule="nonzero"/></clipPath><clipPath id="9c77d76481"><path d="M 138.097656 75 L 143 75 L 143 80 L 138.097656 80 Z M 138.097656 75 " clip-rule="nonzero"/></clipPath><clipPath id="89a45b0d68"><path d="M 138.097656 79 L 145 79 L 145 83 L 138.097656 83 Z M 138.097656 79 " clip-rule="nonzero"/></clipPath><clipPath id="b66c29d2ae"><path d="M 138.097656 80 L 143 80 L 143 83 L 138.097656 83 Z M 138.097656 80 " clip-rule="nonzero"/></clipPath><clipPath id="19697bae99"><path d="M 157 76 L 164.347656 76 L 164.347656 81 L 157 81 Z M 157 76 " clip-rule="nonzero"/></clipPath><clipPath id="0c6c122a46"><path d="M 64 0 L 156 0 L 156 74 L 64 74 Z M 64 0 " clip-rule="nonzero"/></clipPath><clipPath id="03e98ff2ac"><path d="M 120.308594 -9.691406 L 178.113281 48.117188 L 121.367188 104.863281 L 63.5625 47.054688 Z M 120.308594 -9.691406 " clip-rule="nonzero"/></clipPath><clipPath id="ed62a33449"><path d="M 120.308594 -9.691406 L 178.113281 48.117188 L 121.367188 104.863281 L 63.5625 47.054688 Z M 120.308594 -9.691406 " clip-rule="nonzero"/></clipPath><clipPath id="118997f6b3"><path d="M 18.617188 61.152344 L 48.617188 61.152344 L 48.617188 91.902344 L 18.617188 91.902344 Z M 18.617188 61.152344 " clip-rule="nonzero"/></clipPath><clipPath id="1a2eb716e1"><path d="M 51.699219 61.152344 L 76 61.152344 L 76 91.902344 L 51.699219 91.902344 Z M 51.699219 61.152344 " clip-rule="nonzero"/></clipPath><clipPath id="783332b1d1"><path d="M 68 78 L 81.667969 78 L 81.667969 91.902344 L 68 91.902344 Z M 68 78 " clip-rule="nonzero"/></clipPath><clipPath id="77d08d5895"><path d="M 24.964844 95.292969 L 48.964844 95.292969 L 48.964844 120.085938 L 24.964844 120.085938 Z M 24.964844 95.292969 " clip-rule="nonzero"/></clipPath><clipPath id="ab62cf5757"><path d="M 51.699219 95.300781 L 61 95.300781 L 61 118 L 51.699219 118 Z M 51.699219 95.300781 " clip-rule="nonzero"/></clipPath><clipPath id="b3b5c43a27"><path d="M 55 95.300781 L 71 95.300781 L 71 120.085938 L 55 120.085938 Z M 55 95.300781 " clip-rule="nonzero"/></clipPath><clipPath id="4f8e68c4d7"><path d="M 69 95.300781 L 74.949219 95.300781 L 74.949219 120.085938 L 69 120.085938 Z M 69 95.300781 " clip-rule="nonzero"/></clipPath><clipPath id="3d4733f12c"><path d="M 68 116 L 73 116 L 73 120.085938 L 68 120.085938 Z M 68 116 " clip-rule="nonzero"/></clipPath></defs><path fill="#ff3131" d="M 161.042969 78.457031 C 160.921875 79.105469 160.945312 79.714844 161.320312 80.28125 C 161.585938 80.675781 162.355469 81.222656 162.808594 80.824219 C 162.878906 80.761719 162.847656 80.652344 162.777344 80.605469 C 162.613281 80.492188 162.429688 80.519531 162.238281 80.472656 C 161.972656 80.40625 161.761719 80.21875 161.601562 80.003906 C 161.3125 79.605469 161.136719 78.992188 161.210938 78.503906 C 161.226562 78.394531 161.0625 78.34375 161.042969 78.457031 Z M 161.042969 78.457031 " fill-opacity="1" fill-rule="nonzero"/><path fill="#ff3131" d="M 155.695312 85.847656 C 155.6875 85.945312 155.851562 85.96875 155.867188 85.871094 C 155.9375 85.390625 156.40625 84.890625 156.742188 84.566406 C 156.945312 84.378906 157.171875 84.230469 157.414062 84.105469 C 157.582031 84.015625 157.773438 84.011719 157.871094 83.835938 C 157.898438 83.78125 157.898438 83.699219 157.847656 83.65625 C 157.4375 83.332031 156.730469 84.003906 156.453125 84.277344 C 155.992188 84.726562 155.746094 85.21875 155.695312 85.847656 Z M 155.695312 85.847656 " fill-opacity="1" fill-rule="nonzero"/><g clip-path="url(#35c2524ea5)"><path fill="#ff3131" d="M 157.261719 84.449219 C 156.863281 84.863281 157.066406 85.527344 156.789062 86.015625 C 156.390625 86.707031 155.195312 86.8125 154.3125 86.929688 C 154.792969 86.007812 154.960938 84.542969 156.035156 84.472656 C 156.136719 84.46875 156.140625 84.3125 156.035156 84.3125 C 154.527344 84.324219 154.503906 86.25 153.660156 87.078125 C 153.496094 87.242188 153.664062 87.511719 153.882812 87.457031 C 154.933594 87.203125 156.058594 87.199219 156.949219 86.5 C 157.425781 86.121094 157.609375 85.03125 157.425781 84.492188 C 157.402344 84.425781 157.316406 84.394531 157.261719 84.449219 Z M 157.261719 84.449219 " fill-opacity="1" fill-rule="nonzero"/></g><path fill="#ff3131" d="M 141.199219 78.574219 C 140.953125 78.195312 140.839844 77.753906 140.742188 77.320312 C 140.722656 77.242188 140.613281 77.25 140.589844 77.320312 C 140.433594 77.824219 140.621094 78.324219 140.863281 78.769531 C 141.046875 79.109375 141.464844 79.707031 141.898438 79.6875 C 142.003906 79.683594 142.058594 79.582031 142.011719 79.488281 C 141.933594 79.324219 141.796875 79.253906 141.65625 79.132812 C 141.472656 78.972656 141.332031 78.773438 141.199219 78.574219 Z M 141.199219 78.574219 " fill-opacity="1" fill-rule="nonzero"/><path fill="#ff3131" d="M 153.597656 74.828125 C 153.511719 74.820312 153.492188 74.964844 153.578125 74.980469 C 154.105469 75.085938 154.667969 75.101562 155.144531 75.367188 C 155.4375 75.527344 155.683594 75.746094 156.035156 75.707031 C 156.097656 75.699219 156.132812 75.632812 156.085938 75.582031 C 155.832031 75.289062 155.464844 75.058594 155.109375 74.910156 C 154.632812 74.710938 154.09375 74.859375 153.597656 74.828125 Z M 153.597656 74.828125 " fill-opacity="1" fill-rule="nonzero"/><path fill="#ff3131" d="M 151.300781 74.632812 C 151.382812 74.660156 151.441406 74.527344 151.363281 74.492188 C 150.777344 74.242188 150.332031 74.125 149.703125 74.257812 C 149.089844 74.382812 148.6875 74.582031 148.007812 74.507812 C 147.597656 74.457031 147.1875 74.464844 146.78125 74.527344 C 145.886719 74.65625 144.457031 75.390625 144.640625 76.433594 C 144.648438 76.480469 144.710938 76.472656 144.722656 76.433594 C 145.117188 75.097656 146.820312 74.78125 148.007812 74.917969 C 149.175781 75.050781 150.210938 74.253906 151.300781 74.632812 Z M 151.300781 74.632812 " fill-opacity="1" fill-rule="nonzero"/><path fill="#ff3131" d="M 144.222656 75.207031 C 145.460938 74.261719 146.285156 73.882812 148.101562 73.824219 C 148.8125 73.800781 149.519531 73.601562 150.226562 73.589844 C 150.976562 73.582031 151.460938 74.039062 152.160156 74.148438 C 152.199219 74.160156 152.226562 74.140625 152.238281 74.101562 C 152.25 74.058594 152.234375 74.03125 152.195312 74.019531 C 151.621094 73.792969 151.246094 73.359375 150.617188 73.28125 C 149.632812 73.15625 148.644531 73.460938 147.648438 73.433594 C 146.367188 73.390625 144.890625 74.011719 144.09375 75.082031 C 144.039062 75.15625 144.152344 75.261719 144.222656 75.207031 Z M 144.222656 75.207031 " fill-opacity="1" fill-rule="nonzero"/><g clip-path="url(#a8c2a453ce)"><path fill="#ff3131" d="M 147.773438 73.25 C 149.597656 72.6875 151.289062 72.53125 153.085938 73.226562 C 153.84375 73.523438 154.605469 73.546875 155.390625 73.730469 C 156.464844 73.980469 157.207031 74.453125 157.585938 75.390625 C 157.644531 75.535156 157.785156 75.488281 157.730469 75.316406 C 157.175781 73.589844 155.484375 73.292969 153.914062 73.070312 C 152.851562 72.921875 152.023438 72.398438 150.898438 72.417969 C 149.808594 72.4375 148.757812 72.757812 147.726562 73.085938 C 147.621094 73.117188 147.667969 73.28125 147.773438 73.25 Z M 147.773438 73.25 " fill-opacity="1" fill-rule="nonzero"/></g><path fill="#ff3131" d="M 156.792969 75.175781 C 157.035156 75.589844 156.980469 76.128906 157.222656 76.519531 C 157.25 76.566406 157.292969 76.585938 157.347656 76.578125 C 157.402344 76.570312 157.4375 76.542969 157.453125 76.488281 C 157.605469 76.003906 157.242188 75.332031 156.953125 74.953125 C 156.625 74.527344 156.144531 74.246094 155.644531 74.074219 C 155.546875 74.039062 155.511719 74.1875 155.601562 74.222656 C 156.113281 74.414062 156.515625 74.695312 156.792969 75.175781 Z M 156.792969 75.175781 " fill-opacity="1" fill-rule="nonzero"/><path fill="#ff3131" d="M 146.210938 77.171875 C 146.605469 77.242188 146.933594 77.566406 147.296875 77.71875 C 147.757812 77.910156 148.210938 77.992188 148.703125 78.054688 C 149.921875 78.210938 151.175781 78.328125 152.371094 78.023438 C 152.390625 78.019531 152.386719 77.984375 152.367188 77.988281 C 152.15625 78.011719 151.941406 78.023438 151.726562 78.019531 C 151.730469 78.003906 151.734375 77.988281 151.734375 77.972656 C 151.660156 76.75 150.886719 75.953125 149.613281 75.824219 C 148.765625 75.734375 147.621094 76.441406 147.570312 77.308594 C 147.566406 77.402344 147.71875 77.425781 147.734375 77.332031 C 147.886719 76.496094 148.957031 76.085938 149.703125 76.195312 C 150.683594 76.34375 151.15625 77.152344 151.417969 78.003906 C 150.882812 77.96875 150.351562 77.871094 149.8125 77.800781 C 148.890625 77.675781 148.011719 77.667969 147.171875 77.21875 C 146.179688 76.683594 143.519531 76.734375 143.492188 75.222656 C 143.488281 75.125 143.347656 75.125 143.339844 75.222656 C 143.269531 76.761719 145.050781 76.96875 146.210938 77.171875 Z M 146.210938 77.171875 " fill-opacity="1" fill-rule="nonzero"/><path fill="#ff3131" d="M 157.996094 76.570312 C 158.261719 76.507812 158.296875 76.179688 158.308594 75.945312 C 158.324219 75.621094 158.195312 75.351562 158.136719 75.042969 C 158.121094 74.953125 157.96875 74.972656 157.976562 75.0625 C 158.003906 75.292969 158 75.550781 158.003906 75.78125 C 158.007812 76.03125 157.832031 76.222656 157.84375 76.453125 C 157.84375 76.558594 157.894531 76.597656 157.996094 76.570312 Z M 157.996094 76.570312 " fill-opacity="1" fill-rule="nonzero"/><path fill="#ff3131" d="M 143.035156 77.285156 C 143.507812 77.601562 144.070312 77.726562 144.472656 78.148438 C 144.730469 78.417969 144.949219 78.566406 145.296875 78.695312 C 145.628906 78.816406 146.09375 78.75 146.425781 78.703125 C 147.273438 78.582031 147.964844 78.578125 148.785156 78.828125 C 149.382812 79.011719 150.007812 79.050781 150.632812 78.992188 C 151.386719 78.921875 152.132812 78.761719 152.894531 78.722656 C 153.382812 78.699219 153.867188 78.6875 154.351562 78.605469 C 155.339844 78.433594 156.492188 78.121094 157.222656 77.386719 C 157.601562 77.003906 157.769531 76.546875 157.726562 76.011719 C 157.726562 75.960938 157.699219 75.933594 157.648438 75.933594 C 157.59375 75.933594 157.570312 75.960938 157.570312 76.011719 C 157.488281 77.042969 156.730469 77.53125 155.777344 77.808594 C 155.960938 76.558594 154.527344 75.652344 153.453125 75.746094 C 153.324219 75.234375 152.492188 75.070312 152.0625 75.0625 C 151.421875 75.046875 150.734375 75.269531 150.464844 75.878906 C 150.421875 75.96875 150.542969 76.046875 150.601562 75.957031 C 150.859375 75.558594 151.519531 75.4375 151.949219 75.417969 C 152.191406 75.414062 152.425781 75.449219 152.65625 75.53125 C 152.820312 75.589844 152.914062 75.6875 153.003906 75.796875 C 152.296875 75.929688 151.402344 76.3125 151.566406 77.078125 C 151.582031 77.148438 151.699219 77.152344 151.714844 77.078125 C 151.863281 76.320312 152.757812 76.136719 153.414062 76.097656 C 154.667969 76.015625 155.457031 76.855469 155.484375 77.886719 C 154.859375 78.039062 154.21875 78.113281 153.585938 78.207031 C 152.933594 78.308594 152.324219 78.503906 151.664062 78.566406 C 150.972656 78.628906 150.277344 78.746094 149.585938 78.648438 C 148.84375 78.542969 148.191406 78.195312 147.425781 78.1875 C 146.273438 78.175781 145.5 78.625 144.558594 77.636719 C 143.871094 76.921875 142.78125 77.011719 142.824219 75.539062 C 142.824219 75.457031 142.703125 75.441406 142.683594 75.519531 C 142.53125 76.132812 142.410156 76.871094 143.035156 77.285156 Z M 143.035156 77.285156 " fill-opacity="1" fill-rule="nonzero"/><path fill="#ff3131" d="M 146.992188 75.636719 C 146.414062 75.71875 145.9375 75.945312 145.539062 76.363281 C 145.460938 76.445312 145.578125 76.558594 145.660156 76.484375 C 145.992188 76.1875 146.519531 76.070312 146.945312 75.996094 C 147.382812 75.921875 147.820312 76.042969 148.25 75.945312 C 148.316406 75.929688 148.339844 75.835938 148.289062 75.789062 C 147.9375 75.476562 147.425781 75.570312 146.992188 75.636719 Z M 146.992188 75.636719 " fill-opacity="1" fill-rule="nonzero"/><path fill="#ff3131" d="M 149.6875 80.503906 C 150.882812 80.324219 152.175781 80.050781 153.316406 79.636719 C 153.457031 79.585938 153.402344 79.371094 153.25 79.410156 C 151.464844 79.871094 149.585938 80.472656 147.777344 79.898438 C 145.945312 79.316406 144.386719 79.445312 143.238281 77.613281 C 143.1875 77.53125 143.050781 77.582031 143.082031 77.679688 C 143.621094 79.363281 145.269531 79.84375 146.851562 80.0625 C 147.886719 80.203125 148.621094 80.667969 149.6875 80.503906 Z M 149.6875 80.503906 " fill-opacity="1" fill-rule="nonzero"/><path fill="#ff3131" d="M 157.800781 77.75 C 157.875 77.667969 157.761719 77.550781 157.683594 77.628906 C 157.308594 78.011719 156.902344 78.367188 156.453125 78.660156 C 156.023438 78.9375 155.523438 79.039062 155.09375 79.300781 C 154.992188 79.363281 155.046875 79.492188 155.148438 79.507812 C 156.261719 79.652344 157.164062 78.476562 157.800781 77.75 Z M 157.800781 77.75 " fill-opacity="1" fill-rule="nonzero"/><path fill="#ff3131" d="M 157.449219 74.21875 C 158.316406 74.691406 158.863281 75.648438 158.890625 76.621094 C 158.921875 77.785156 157.894531 78.0625 157.296875 78.792969 C 157.238281 78.867188 157.296875 78.960938 157.386719 78.945312 C 158.488281 78.796875 159.214844 77.648438 159.289062 76.621094 C 159.375 75.433594 158.496094 74.558594 157.53125 74.078125 C 157.4375 74.03125 157.355469 74.167969 157.449219 74.21875 Z M 157.449219 74.21875 " fill-opacity="1" fill-rule="nonzero"/><path fill="#ff3131" d="M 149.128906 81.019531 C 150.179688 80.71875 151.46875 80.992188 152.558594 80.894531 C 153.808594 80.78125 155.070312 80.46875 156.117188 79.769531 C 156.207031 79.707031 156.152344 79.546875 156.039062 79.585938 C 154.5625 80.085938 153.210938 80.484375 151.640625 80.613281 C 150.765625 80.683594 149.925781 80.558594 149.089844 80.875 C 149 80.90625 149.035156 81.046875 149.128906 81.019531 Z M 149.128906 81.019531 " fill-opacity="1" fill-rule="nonzero"/><path fill="#ff3131" d="M 144.71875 80.757812 C 144.800781 81.492188 145.351562 81.988281 146.042969 82.230469 C 147.382812 82.703125 148.902344 83.007812 150.320312 82.867188 C 152.761719 82.628906 156.28125 82.304688 157.347656 79.648438 C 157.390625 79.542969 157.226562 79.453125 157.15625 79.539062 C 156.507812 80.316406 155.929688 80.972656 155.019531 81.46875 C 153.976562 82.039062 152.722656 82.148438 151.570312 82.308594 C 150.257812 82.492188 149.207031 82.609375 147.894531 82.34375 C 146.792969 82.117188 145.425781 81.957031 144.914062 80.769531 C 145.785156 81.226562 146.710938 81.714844 147.640625 81.921875 C 148.65625 82.144531 149.792969 81.851562 150.78125 81.636719 C 152.15625 81.34375 153.65625 81.453125 154.980469 80.996094 C 155.066406 80.964844 155.058594 80.820312 154.960938 80.832031 C 153.15625 81.011719 151.394531 81.320312 149.601562 81.546875 C 148.640625 81.671875 147.660156 81.648438 146.769531 81.226562 C 145.957031 80.835938 143.890625 80.222656 143.9375 79.144531 C 143.941406 79.054688 143.796875 79.035156 143.78125 79.125 C 143.765625 79.226562 143.757812 79.328125 143.757812 79.429688 C 143.601562 79.191406 143.28125 79.140625 143.015625 79.074219 C 142.636719 78.980469 142.253906 78.988281 141.867188 78.96875 C 141.777344 78.964844 141.753906 79.113281 141.847656 79.128906 C 142.171875 79.179688 142.488281 79.273438 142.8125 79.355469 C 143.09375 79.429688 143.378906 79.636719 143.671875 79.605469 C 143.710938 79.597656 143.738281 79.582031 143.761719 79.550781 C 143.800781 79.949219 144.007812 80.308594 144.425781 80.519531 C 144.53125 80.574219 144.640625 80.628906 144.75 80.6875 C 144.722656 80.703125 144.710938 80.726562 144.71875 80.757812 Z M 144.71875 80.757812 " fill-opacity="1" fill-rule="nonzero"/><path fill="#ff3131" d="M 150.703125 83.117188 C 150.339844 83.164062 149.980469 83.203125 149.613281 83.210938 C 149.519531 83.214844 149.519531 83.359375 149.613281 83.363281 C 150.3125 83.382812 151.257812 83.675781 151.855469 83.1875 C 151.945312 83.113281 151.867188 82.976562 151.765625 82.96875 C 151.414062 82.953125 151.050781 83.078125 150.703125 83.117188 Z M 150.703125 83.117188 " fill-opacity="1" fill-rule="nonzero"/><g clip-path="url(#9c77d76481)"><path fill="#ff3131" d="M 138.515625 78.75 C 138.769531 78.753906 139.023438 78.773438 139.28125 78.773438 C 139.515625 78.773438 139.808594 78.875 140.027344 78.800781 L 140.03125 78.796875 C 140.21875 79.042969 140.496094 79.175781 140.917969 79.136719 C 141.027344 79.125 141.03125 78.953125 140.917969 78.960938 C 140.074219 79.027344 140.078125 77.882812 140.082031 77.308594 C 140.085938 76.871094 140.066406 76.28125 140.148438 75.78125 C 140.402344 76.039062 140.699219 76.253906 140.976562 76.5 C 141.660156 77.101562 141.722656 77.878906 141.605469 78.691406 C 141.578125 78.863281 141.777344 78.894531 141.867188 78.730469 C 142.152344 78.195312 142.109375 77.363281 141.824219 76.828125 C 141.441406 76.113281 140.695312 75.804688 140.230469 75.167969 C 140.089844 74.96875 139.722656 75.082031 139.808594 75.347656 C 139.90625 75.640625 139.746094 76.148438 139.71875 76.449219 C 139.675781 76.929688 139.644531 77.441406 139.71875 77.921875 C 139.746094 78.125 139.796875 78.324219 139.871094 78.515625 C 139.742188 78.484375 139.597656 78.492188 139.476562 78.496094 C 139.152344 78.5 138.835938 78.574219 138.515625 78.589844 C 138.414062 78.59375 138.414062 78.746094 138.515625 78.75 Z M 138.515625 78.75 " fill-opacity="1" fill-rule="nonzero"/></g><g clip-path="url(#89a45b0d68)"><path fill="#ff3131" d="M 144.382812 81.140625 C 143.339844 80.773438 142.394531 80.246094 141.3125 79.984375 C 140.324219 79.75 139.398438 80.042969 138.433594 80.238281 C 138.328125 80.257812 138.375 80.40625 138.472656 80.390625 C 139.691406 80.203125 140.753906 80.140625 141.9375 80.550781 C 142.007812 80.574219 142.082031 80.601562 142.152344 80.628906 C 141.527344 80.835938 140.820312 81.863281 140.253906 81.875 C 140.199219 81.875 140.183594 81.960938 140.242188 81.976562 C 140.691406 82.089844 140.976562 81.945312 141.328125 81.664062 C 141.535156 81.5 141.722656 81.316406 141.941406 81.164062 C 142.167969 81.003906 142.429688 81.023438 142.65625 80.894531 C 142.679688 80.878906 142.695312 80.859375 142.707031 80.832031 C 143.242188 81.035156 143.78125 81.214844 144.367188 81.257812 C 144.4375 81.265625 144.441406 81.164062 144.382812 81.140625 Z M 144.382812 81.140625 " fill-opacity="1" fill-rule="nonzero"/></g><g clip-path="url(#b66c29d2ae)"><path fill="#ff3131" d="M 142.1875 81.253906 C 141.847656 82.046875 141.453125 82.507812 140.550781 82.605469 C 139.914062 82.671875 139.230469 82.488281 138.707031 82.117188 C 139.558594 81.574219 140.382812 80.289062 141.414062 80.957031 C 141.507812 81.015625 141.589844 80.871094 141.5 80.808594 C 140.242188 79.945312 139.378906 81.460938 138.304688 81.894531 C 138.175781 81.945312 138.097656 82.113281 138.21875 82.222656 C 139.332031 83.238281 142.503906 83.519531 142.449219 81.324219 C 142.445312 81.199219 142.246094 81.121094 142.1875 81.253906 Z M 142.1875 81.253906 " fill-opacity="1" fill-rule="nonzero"/></g><path fill="#ff3131" d="M 148.53125 83.125 C 148.609375 83.089844 148.589844 82.949219 148.503906 82.933594 C 147.257812 82.691406 145.671875 83.4375 144.703125 84.164062 C 144.617188 84.226562 144.699219 84.371094 144.785156 84.308594 C 145.347656 83.902344 146.019531 83.679688 146.683594 83.507812 C 147.289062 83.347656 147.960938 83.371094 148.53125 83.125 Z M 148.53125 83.125 " fill-opacity="1" fill-rule="nonzero"/><path fill="#ff3131" d="M 153.300781 83.621094 C 152.046875 83.359375 150.578125 83.628906 149.316406 83.75 C 148.019531 83.871094 146.855469 84.429688 145.71875 85.027344 C 145.636719 85.070312 145.710938 85.191406 145.792969 85.152344 C 146.804688 84.6875 147.796875 84.351562 148.890625 84.148438 C 149.941406 83.953125 151.402344 83.769531 152.582031 83.878906 C 152.007812 84.136719 151.46875 84.457031 151.054688 84.949219 C 150.976562 85.042969 151.074219 85.1875 151.1875 85.121094 C 151.910156 84.71875 152.519531 84.269531 153.300781 83.964844 C 153.449219 83.90625 153.488281 83.660156 153.300781 83.621094 Z M 153.300781 83.621094 " fill-opacity="1" fill-rule="nonzero"/><path fill="#ff3131" d="M 156.574219 83.742188 C 155.179688 83.789062 153.15625 84.117188 152.214844 85.285156 C 152.148438 85.367188 152.261719 85.480469 152.328125 85.398438 C 153.316406 84.199219 155.25 84.3125 156.609375 84.027344 C 156.769531 83.992188 156.734375 83.738281 156.574219 83.742188 Z M 156.574219 83.742188 " fill-opacity="1" fill-rule="nonzero"/><path fill="#ff3131" d="M 160.714844 83.855469 C 160.238281 83.808594 159.730469 83.898438 159.25 83.910156 C 158.765625 83.921875 158.285156 83.9375 157.804688 83.945312 C 157.714844 83.945312 157.71875 84.078125 157.804688 84.082031 C 158.75 84.121094 159.886719 84.554688 160.78125 84.09375 C 160.902344 84.03125 160.832031 83.863281 160.714844 83.855469 Z M 160.714844 83.855469 " fill-opacity="1" fill-rule="nonzero"/><path fill="#ff3131" d="M 163.90625 81.351562 C 161.339844 80.863281 158.535156 82.128906 156.003906 82.425781 C 155.917969 82.4375 155.914062 82.570312 156.003906 82.566406 C 157.195312 82.472656 158.335938 82.296875 159.507812 82.074219 C 160.964844 81.796875 162.464844 81.835938 163.90625 81.554688 C 164.003906 81.535156 164.007812 81.371094 163.90625 81.351562 Z M 163.90625 81.351562 " fill-opacity="1" fill-rule="nonzero"/><path fill="#ff3131" d="M 161.539062 82.828125 C 160.378906 82.886719 159.222656 82.988281 158.058594 83.003906 C 157.082031 83.019531 156.128906 82.765625 155.160156 82.710938 C 155.792969 82.449219 156.394531 82.125 156.960938 81.734375 C 157.382812 81.449219 157.5625 81.027344 157.710938 80.5625 C 157.957031 79.8125 158.71875 79.542969 158.6875 78.734375 C 158.683594 78.625 158.542969 78.613281 158.507812 78.707031 C 158.277344 79.308594 157.992188 79.417969 157.699219 79.890625 C 157.273438 80.578125 157.28125 81.15625 156.515625 81.691406 C 155.390625 82.472656 153.839844 83.078125 152.460938 83.078125 C 152.355469 83.078125 152.355469 83.242188 152.460938 83.242188 C 153.15625 83.253906 153.835938 83.144531 154.492188 82.945312 C 154.515625 82.96875 154.546875 82.984375 154.578125 82.988281 C 155.734375 83.109375 156.898438 83.285156 158.058594 83.316406 C 159.21875 83.34375 160.386719 83.078125 161.539062 82.984375 C 161.636719 82.976562 161.636719 82.824219 161.539062 82.828125 Z M 161.539062 82.828125 " fill-opacity="1" fill-rule="nonzero"/><g clip-path="url(#19697bae99)"><path fill="#ff3131" d="M 164.542969 79.609375 C 163.878906 79.671875 163.03125 79.488281 162.339844 79.640625 C 162.484375 79.222656 162.433594 78.734375 162.363281 78.292969 C 162.226562 77.460938 161.417969 77.121094 161.195312 76.359375 C 161.125 76.113281 160.710938 76.152344 160.734375 76.425781 C 160.828125 77.4375 159.851562 78.214844 159.855469 79.25 C 159.855469 79.507812 159.90625 79.773438 160.023438 80.003906 C 159.367188 79.972656 158.554688 80.453125 157.976562 80.550781 C 157.882812 80.566406 157.902344 80.722656 157.996094 80.714844 C 158.382812 80.667969 158.75 80.605469 159.132812 80.523438 C 159.503906 80.445312 159.929688 80.457031 160.289062 80.328125 C 160.535156 80.492188 160.902344 80.503906 161.144531 80.644531 C 161.246094 80.707031 161.332031 80.550781 161.234375 80.488281 C 160.941406 80.292969 160.414062 80.144531 160.285156 79.792969 C 160.113281 79.324219 160.238281 78.796875 160.429688 78.371094 C 160.640625 77.910156 160.863281 77.523438 161.027344 77.082031 C 161.160156 77.265625 161.324219 77.429688 161.480469 77.605469 C 162.070312 78.25 161.949219 79.105469 161.808594 79.886719 C 161.78125 80.046875 161.980469 80.207031 162.105469 80.058594 C 162.117188 80.042969 162.128906 80.027344 162.140625 80.011719 C 162.507812 80.007812 162.890625 79.929688 163.257812 79.890625 C 163.691406 79.84375 164.128906 79.820312 164.5625 79.75 C 164.640625 79.738281 164.621094 79.601562 164.542969 79.609375 Z M 164.542969 79.609375 " fill-opacity="1" fill-rule="nonzero"/></g><g fill="#ff5a5f" fill-opacity="1"><g transform="translate(82.490829, 118.715503)"><g><path d="M 19.984375 1.484375 C 16.484375 1.484375 13.644531 0.410156 11.46875 -1.734375 C 9.300781 -3.878906 8.21875 -6.65625 8.21875 -10.0625 L 8.21875 -32.71875 L 0 -32.71875 L 0 -37.390625 L 8.21875 -37.390625 L 8.21875 -48.484375 L 13.84375 -49.828125 L 13.84375 -37.390625 L 30.578125 -37.390625 L 30.578125 -32.71875 L 13.84375 -32.71875 L 13.84375 -10.65625 C 13.84375 -8.539062 14.445312 -6.800781 15.65625 -5.4375 C 16.863281 -4.082031 18.476562 -3.40625 20.5 -3.40625 C 22.375 -3.40625 24.085938 -4.054688 25.640625 -5.359375 C 27.203125 -6.671875 28.15625 -8.535156 28.5 -10.953125 L 33.09375 -9.03125 C 32.75 -6.863281 31.945312 -4.988281 30.6875 -3.40625 C 29.425781 -1.820312 27.859375 -0.613281 25.984375 0.21875 C 24.109375 1.0625 22.109375 1.484375 19.984375 1.484375 Z M 19.984375 1.484375 "/></g></g></g><g fill="#ff5a5f" fill-opacity="1"><g transform="translate(112.1773, 118.715503)"><g><path d="M 7.109375 -44.640625 C 5.867188 -44.640625 4.867188 -45.019531 4.109375 -45.78125 C 3.347656 -46.550781 2.96875 -47.550781 2.96875 -48.78125 C 2.96875 -50.019531 3.347656 -51.007812 4.109375 -51.75 C 4.867188 -52.488281 5.867188 -52.859375 7.109375 -52.859375 C 8.335938 -52.859375 9.347656 -52.488281 10.140625 -51.75 C 10.929688 -51.007812 11.328125 -50.019531 11.328125 -48.78125 C 11.328125 -47.550781 10.929688 -46.550781 10.140625 -45.78125 C 9.347656 -45.019531 8.335938 -44.640625 7.109375 -44.640625 Z M 4.21875 0 L 4.21875 -37.390625 L 9.84375 -37.390625 L 9.84375 0 Z M 4.21875 0 "/></g></g></g><g fill="#ff5a5f" fill-opacity="1"><g transform="translate(122.763602, 118.715503)"><g><path d="M 21.25 1.484375 C 17.59375 1.484375 14.332031 0.609375 11.46875 -1.140625 C 8.613281 -2.898438 6.359375 -5.296875 4.703125 -8.328125 C 3.046875 -11.359375 2.21875 -14.800781 2.21875 -18.65625 C 2.21875 -22.550781 3.03125 -26.015625 4.65625 -29.046875 C 6.289062 -32.085938 8.535156 -34.484375 11.390625 -36.234375 C 14.253906 -37.984375 17.515625 -38.859375 21.171875 -38.859375 C 24.285156 -38.859375 27.070312 -38.179688 29.53125 -36.828125 C 32 -35.472656 34.023438 -33.5625 35.609375 -31.09375 L 35.6875 -31.09375 L 35.6875 -54.40625 L 41.390625 -54.40625 L 41.390625 0 L 36.421875 0 L 35.90625 -6.4375 L 35.828125 -6.4375 C 34.253906 -3.96875 32.207031 -2.03125 29.6875 -0.625 C 27.164062 0.78125 24.351562 1.484375 21.25 1.484375 Z M 21.90625 -3.625 C 24.625 -3.625 27.03125 -4.289062 29.125 -5.625 C 31.226562 -6.957031 32.882812 -8.757812 34.09375 -11.03125 C 35.300781 -13.300781 35.90625 -15.84375 35.90625 -18.65625 C 35.90625 -21.519531 35.300781 -24.070312 34.09375 -26.3125 C 32.882812 -28.5625 31.226562 -30.351562 29.125 -31.6875 C 27.03125 -33.019531 24.625 -33.6875 21.90625 -33.6875 C 19.195312 -33.6875 16.78125 -33.019531 14.65625 -31.6875 C 12.53125 -30.351562 10.863281 -28.5625 9.65625 -26.3125 C 8.445312 -24.070312 7.84375 -21.519531 7.84375 -18.65625 C 7.84375 -15.789062 8.457031 -13.222656 9.6875 -10.953125 C 10.925781 -8.679688 12.609375 -6.890625 14.734375 -5.578125 C 16.859375 -4.273438 19.25 -3.625 21.90625 -3.625 Z M 21.90625 -3.625 "/></g></g></g><g fill="#ff5a5f" fill-opacity="1"><g transform="translate(164.147076, 118.715503)"><g><path d="M 18.0625 17.03125 C 13.425781 17.03125 9.453125 16.140625 6.140625 14.359375 C 2.835938 12.585938 0.46875 10.21875 -0.96875 7.25 L 3.84375 4 C 5.03125 6.363281 6.84375 8.273438 9.28125 9.734375 C 11.726562 11.191406 14.609375 11.921875 17.921875 11.921875 C 22.160156 11.921875 25.488281 10.796875 27.90625 8.546875 C 30.320312 6.304688 31.53125 3.210938 31.53125 -0.734375 L 31.53125 -4 L 31.46875 -4 C 30.175781 -1.820312 28.367188 -0.117188 26.046875 1.109375 C 23.734375 2.347656 21.269531 2.96875 18.65625 2.96875 C 15.539062 2.96875 12.835938 2.25 10.546875 0.8125 C 8.253906 -0.613281 6.460938 -2.570312 5.171875 -5.0625 C 3.890625 -7.5625 3.25 -10.390625 3.25 -13.546875 L 3.25 -37.390625 L 8.890625 -37.390625 L 8.890625 -13.546875 C 8.890625 -10.242188 9.8125 -7.515625 11.65625 -5.359375 C 13.507812 -3.210938 16.066406 -2.140625 19.328125 -2.140625 C 21.492188 -2.140625 23.5 -2.671875 25.34375 -3.734375 C 27.195312 -4.796875 28.679688 -6.238281 29.796875 -8.0625 C 30.910156 -9.894531 31.46875 -11.992188 31.46875 -14.359375 L 31.46875 -37.390625 L 37.09375 -37.390625 L 37.15625 -0.734375 C 37.15625 4.835938 35.441406 9.191406 32.015625 12.328125 C 28.585938 15.460938 23.9375 17.03125 18.0625 17.03125 Z M 18.0625 17.03125 "/></g></g></g><g fill="#ff5a5f" fill-opacity="1"><g transform="translate(201.310759, 118.715503)"><g><path d="M 23.765625 -38.859375 C 28.054688 -38.859375 31.4375 -37.5625 33.90625 -34.96875 C 36.375 -32.382812 37.609375 -28.773438 37.609375 -24.140625 L 37.609375 0 L 31.90625 0 L 31.90625 -23.546875 C 31.90625 -26.753906 31.03125 -29.296875 29.28125 -31.171875 C 27.53125 -33.046875 25.171875 -33.984375 22.203125 -33.984375 C 19.691406 -33.984375 17.472656 -33.4375 15.546875 -32.34375 C 13.617188 -31.257812 12.097656 -29.753906 10.984375 -27.828125 C 9.878906 -25.910156 9.328125 -23.664062 9.328125 -21.09375 L 9.328125 0 L 3.703125 0 L 3.703125 -37.390625 L 8.8125 -37.390625 L 9.328125 -31.828125 L 9.40625 -31.828125 C 10.976562 -34.097656 12.945312 -35.835938 15.3125 -37.046875 C 17.6875 -38.253906 20.503906 -38.859375 23.765625 -38.859375 Z M 23.765625 -38.859375 "/></g></g></g><g fill="#ff5a5f" fill-opacity="1"><g transform="translate(238.548473, 118.715503)"><g><path d="M 22.875 1.484375 C 18.925781 1.484375 15.382812 0.597656 12.25 -1.171875 C 9.113281 -2.953125 6.65625 -5.394531 4.875 -8.5 C 3.101562 -11.613281 2.21875 -15.144531 2.21875 -19.09375 C 2.21875 -22.945312 3.03125 -26.351562 4.65625 -29.3125 C 6.289062 -32.28125 8.550781 -34.613281 11.4375 -36.3125 C 14.320312 -38.007812 17.617188 -38.859375 21.328125 -38.859375 C 24.972656 -38.859375 28.148438 -38.007812 30.859375 -36.3125 C 33.578125 -34.613281 35.703125 -32.269531 37.234375 -29.28125 C 38.765625 -26.289062 39.554688 -22.875 39.609375 -19.03125 C 39.609375 -18.6875 39.609375 -18.328125 39.609375 -17.953125 C 39.609375 -17.578125 39.582031 -17.195312 39.53125 -16.8125 L 8.0625 -16.8125 C 8.363281 -14.238281 9.179688 -11.953125 10.515625 -9.953125 C 11.847656 -7.953125 13.585938 -6.394531 15.734375 -5.28125 C 17.878906 -4.175781 20.285156 -3.625 22.953125 -3.625 C 25.859375 -3.625 28.472656 -4.300781 30.796875 -5.65625 C 33.117188 -7.019531 34.796875 -8.710938 35.828125 -10.734375 L 40.71875 -8.734375 C 39.925781 -6.765625 38.65625 -5 36.90625 -3.4375 C 35.15625 -1.882812 33.082031 -0.675781 30.6875 0.1875 C 28.289062 1.050781 25.6875 1.484375 22.875 1.484375 Z M 8.140625 -21.765625 L 33.609375 -21.765625 C 33.265625 -25.566406 31.96875 -28.503906 29.71875 -30.578125 C 27.476562 -32.648438 24.65625 -33.6875 21.25 -33.6875 C 17.789062 -33.6875 14.875 -32.585938 12.5 -30.390625 C 10.132812 -28.191406 8.679688 -25.316406 8.140625 -21.765625 Z M 8.140625 -21.765625 "/></g></g></g><g fill="#ff5a5f" fill-opacity="1"><g transform="translate(277.340848, 118.715503)"><g><path d="M 19.171875 1.484375 C 16.066406 1.484375 13.21875 0.96875 10.625 -0.0625 C 8.03125 -1.101562 5.914062 -2.570312 4.28125 -4.46875 C 2.65625 -6.375 1.722656 -8.660156 1.484375 -11.328125 L 7.03125 -12.4375 C 7.28125 -9.875 8.539062 -7.765625 10.8125 -6.109375 C 13.082031 -4.453125 15.867188 -3.625 19.171875 -3.625 C 22.085938 -3.625 24.539062 -4.238281 26.53125 -5.46875 C 28.53125 -6.707031 29.53125 -8.289062 29.53125 -10.21875 C 29.53125 -11.644531 28.816406 -12.828125 27.390625 -13.765625 C 25.960938 -14.703125 23.664062 -15.492188 20.5 -16.140625 L 14.578125 -17.328125 C 10.679688 -18.160156 7.859375 -19.390625 6.109375 -21.015625 C 4.359375 -22.648438 3.484375 -24.828125 3.484375 -27.546875 C 3.523438 -29.710938 4.140625 -31.644531 5.328125 -33.34375 C 6.515625 -35.050781 8.144531 -36.394531 10.21875 -37.375 C 12.289062 -38.363281 14.660156 -38.859375 17.328125 -38.859375 C 21.273438 -38.859375 24.601562 -37.910156 27.3125 -36.015625 C 30.03125 -34.117188 31.734375 -31.640625 32.421875 -28.578125 L 27.015625 -27.09375 C 26.773438 -29.070312 25.753906 -30.703125 23.953125 -31.984375 C 22.148438 -33.265625 19.914062 -33.90625 17.25 -33.90625 C 14.882812 -33.90625 12.921875 -33.285156 11.359375 -32.046875 C 9.804688 -30.816406 9.003906 -29.410156 8.953125 -27.828125 C 8.953125 -26.453125 9.546875 -25.34375 10.734375 -24.5 C 11.921875 -23.664062 13.796875 -22.976562 16.359375 -22.4375 L 22.4375 -21.25 C 26.820312 -20.3125 30.015625 -19.015625 32.015625 -17.359375 C 34.015625 -15.703125 35.015625 -13.492188 35.015625 -10.734375 C 35.015625 -8.410156 34.320312 -6.320312 32.9375 -4.46875 C 31.5625 -2.625 29.675781 -1.171875 27.28125 -0.109375 C 24.882812 0.953125 22.179688 1.484375 19.171875 1.484375 Z M 19.171875 1.484375 "/></g></g></g><g fill="#ff5a5f" fill-opacity="1"><g transform="translate(310.136659, 118.715503)"><g><path d="M 19.984375 1.484375 C 16.484375 1.484375 13.644531 0.410156 11.46875 -1.734375 C 9.300781 -3.878906 8.21875 -6.65625 8.21875 -10.0625 L 8.21875 -32.71875 L 0 -32.71875 L 0 -37.390625 L 8.21875 -37.390625 L 8.21875 -48.484375 L 13.84375 -49.828125 L 13.84375 -37.390625 L 30.578125 -37.390625 L 30.578125 -32.71875 L 13.84375 -32.71875 L 13.84375 -10.65625 C 13.84375 -8.539062 14.445312 -6.800781 15.65625 -5.4375 C 16.863281 -4.082031 18.476562 -3.40625 20.5 -3.40625 C 22.375 -3.40625 24.085938 -4.054688 25.640625 -5.359375 C 27.203125 -6.671875 28.15625 -8.535156 28.5 -10.953125 L 33.09375 -9.03125 C 32.75 -6.863281 31.945312 -4.988281 30.6875 -3.40625 C 29.425781 -1.820312 27.859375 -0.613281 25.984375 0.21875 C 24.109375 1.0625 22.109375 1.484375 19.984375 1.484375 Z M 19.984375 1.484375 "/></g></g></g><g clip-path="url(#0c6c122a46)"><g clip-path="url(#03e98ff2ac)"><g clip-path="url(#ed62a33449)"><path fill="#ff3131" d="M 142.34375 64.179688 C 141.484375 64.757812 140.582031 65.011719 139.707031 64.871094 C 138.085938 64.628906 136.433594 64.390625 134.867188 63.894531 C 130.46875 62.542969 126.121094 61.046875 121.960938 59.058594 C 120.226562 58.226562 118.617188 57.210938 117.402344 55.683594 C 116.683594 54.796875 116.234375 53.78125 116.234375 52.625 C 116.234375 51.722656 115.765625 51.144531 115.046875 50.707031 C 114.101562 50.128906 113.042969 49.972656 111.972656 49.886719 C 110.503906 49.773438 109.050781 49.875 107.65625 50.3125 C 107.332031 50.410156 107.007812 50.566406 106.738281 50.746094 C 106.046875 51.242188 105.863281 51.875 106.414062 52.511719 C 107.472656 53.738281 108.574219 54.980469 109.8125 55.996094 C 118.164062 62.9375 127.828125 67.210938 138.238281 69.917969 C 140.230469 70.441406 142.273438 70.824219 144.347656 70.582031 C 145.886719 70.398438 147.253906 69.878906 148.339844 68.734375 C 149.101562 67.945312 149.132812 66.984375 148.441406 66.125 C 147.71875 65.234375 146.71875 64.742188 145.71875 64.25 C 144.164062 63.488281 142.515625 62.824219 141.160156 61.808594 C 137.746094 59.269531 136.363281 55.941406 137.875 51.496094 C 137.929688 51.328125 138.015625 51.183594 138.113281 50.945312 C 140.371094 52.496094 142.953125 53.019531 145.546875 53.5 C 146 53.582031 146.464844 53.710938 146.917969 53.824219 C 149.539062 54.445312 151.769531 55.714844 153.546875 57.773438 C 155.648438 60.214844 156.324219 63.035156 155.734375 66.167969 C 155.480469 67.492188 154.730469 68.578125 153.703125 69.441406 C 153.433594 69.652344 153.347656 69.820312 153.417969 70.175781 C 153.660156 71.371094 153.519531 72.53125 152.96875 73.757812 C 152.261719 72.289062 151.261719 71.289062 149.808594 70.824219 C 148.707031 70.457031 147.566406 70.527344 146.449219 70.738281 C 145.066406 70.992188 143.6875 71.332031 142.273438 71.5 C 139.480469 71.839844 136.757812 71.316406 134.078125 70.609375 C 127.292969 68.820312 121.101562 65.730469 115.5 61.539062 C 112.042969 58.957031 108.726562 56.152344 105.453125 53.328125 C 102.972656 51.183594 100.179688 50.339844 96.960938 50.59375 C 91.980469 51 87.425781 52.738281 83.023438 54.996094 C 81.640625 55.699219 80.34375 56.574219 78.988281 57.363281 C 78.847656 57.449219 78.691406 57.519531 78.480469 57.644531 C 82.726562 53.035156 92.234375 47.023438 103.097656 47.164062 C 102.871094 47.136719 102.660156 47.09375 102.449219 47.078125 C 100.320312 46.898438 98.203125 46.980469 96.101562 47.363281 C 95.113281 47.53125 94.15625 47.445312 93.179688 47.320312 C 87.328125 46.542969 81.457031 46.375 75.589844 46.96875 C 71.851562 47.347656 68.125 47.941406 64.445312 48.433594 C 65.699219 47.882812 67.039062 47.25 68.410156 46.726562 C 75.632812 44.019531 83.136719 42.976562 90.824219 43.101562 C 97.34375 43.214844 103.746094 44.371094 110.109375 45.738281 C 113.03125 46.375 115.980469 46.953125 118.941406 47.488281 C 119.730469 47.628906 120.578125 47.515625 121.382812 47.417969 C 120.550781 47.066406 119.71875 46.683594 118.886719 46.332031 C 118.898438 46.261719 118.898438 46.175781 118.925781 46.09375 C 120.167969 46.175781 121.355469 46.0625 122.242188 45.34375 C 121.523438 45.160156 120.691406 45.035156 119.929688 44.722656 C 119.152344 44.398438 118.617188 43.722656 118.265625 43.003906 C 118.957031 43.242188 119.632812 43.554688 120.367188 43.722656 C 121.101562 43.890625 121.832031 43.808594 122.609375 43.339844 C 119.957031 42.523438 117.996094 41.015625 116.699219 38.671875 C 118.757812 40.28125 120.945312 41.453125 123.695312 41.042969 C 120.140625 39.460938 117.261719 37.121094 115.105469 33.804688 C 116.65625 34.90625 118.082031 36.019531 119.617188 36.992188 C 121.171875 37.980469 122.878906 38.699219 124.753906 38.855469 C 122.609375 37.640625 120.632812 36.230469 118.871094 34.523438 C 117.105469 32.816406 115.429688 31.054688 114.554688 28.683594 C 117.828125 32.15625 121.550781 34.917969 126.023438 36.625 C 121.367188 33.296875 117.179688 29.53125 114.609375 24.28125 C 114.300781 23.660156 114.144531 22.96875 113.976562 22.292969 C 117.472656 27.597656 122.1875 31.519531 127.703125 34.523438 C 127.082031 34.015625 126.460938 33.507812 125.855469 32.957031 C 121.550781 29.105469 117.941406 24.707031 115.511719 19.429688 C 114.820312 17.921875 114.328125 16.324219 114.199219 14.476562 C 117.433594 21.601562 122.453125 27.046875 128.324219 31.816406 C 127.363281 30.6875 126.363281 29.601562 125.445312 28.457031 C 121.242188 23.125 117.726562 17.414062 116.050781 10.738281 C 115.542969 8.707031 115.328125 6.664062 115.753906 4.546875 C 117.53125 14.535156 123.285156 22.265625 129.875 29.53125 C 128.871094 28.078125 127.828125 26.636719 126.882812 25.15625 C 122.664062 18.570312 119.675781 11.515625 118.6875 3.699219 C 118.136719 0.0195312 118.292969 -3.664062 119.351562 -7.289062 C 119.5625 -7.980469 119.84375 -8.660156 120.113281 -9.320312 C 120.140625 -9.433594 120.210938 -9.503906 120.308594 -9.6875 C 120.351562 -9.503906 120.410156 -9.421875 120.410156 -9.335938 C 120.71875 -0.53125 123.019531 7.75 126.855469 15.621094 C 129.070312 20.175781 131.496094 24.636719 133.808594 29.148438 C 135.53125 32.507812 137.195312 35.894531 138.15625 39.5625 C 138.566406 41.125 138.804688 42.75 138.929688 44.371094 C 139.113281 46.699219 138.238281 48.785156 137.183594 50.804688 C 136.929688 51.285156 136.703125 51.765625 136.476562 52.242188 C 135.09375 55.007812 135.574219 57.546875 137.421875 59.933594 C 138.621094 61.496094 140.117188 62.738281 141.753906 63.8125 C 141.949219 63.894531 142.089844 64.007812 142.34375 64.179688 Z M 151.175781 68.777344 C 151.796875 70.019531 152.433594 71.332031 153.066406 72.585938 C 153.746094 70.300781 153.164062 69.300781 151.175781 68.777344 Z M 150.878906 63.964844 C 152.109375 63.867188 152.402344 64.136719 152.390625 65.222656 C 152.769531 64.472656 152.714844 63.824219 152.207031 63.542969 C 151.640625 63.261719 151.21875 63.488281 150.878906 63.964844 Z M 150.878906 63.964844 " fill-opacity="1" fill-rule="nonzero"/></g></g></g><path fill="#ff5a5f" d="M 31.382812 75.746094 C 33.304688 76.039062 34.882812 77.488281 36.410156 78.621094 C 34.90625 78.554688 33.40625 78.644531 31.917969 78.773438 C 31.28125 78.210938 30.746094 77.488281 30.542969 76.660156 C 30.402344 76.140625 30.847656 75.667969 31.382812 75.746094 Z M 31.382812 75.746094 " fill-opacity="1" fill-rule="nonzero"/><path fill="#ff5a5f" d="M 43.507812 80.71875 C 42.949219 81.394531 42.109375 81.8125 41.167969 81.8125 C 39.804688 81.8125 38.636719 80.910156 38.253906 79.664062 C 36.410156 79.445312 34.527344 79.394531 32.667969 79.535156 C 33.417969 80.386719 34.308594 81.085938 35.199219 81.789062 C 35.199219 81.789062 34.933594 82.449219 34.90625 82.511719 C 34.832031 82.78125 34.78125 83.046875 34.792969 83.328125 C 34.804688 83.886719 35.007812 84.421875 35.53125 84.6875 C 36.394531 85.132812 37.628906 84.957031 38.113281 84.039062 C 38.429688 83.429688 38.175781 82.765625 38.074219 82.132812 C 40.210938 81.941406 42.757812 82.714844 44.539062 81.203125 C 44.285156 81.074219 43.773438 80.847656 43.507812 80.71875 Z M 36.484375 84.039062 C 36.039062 84.039062 35.695312 83.683594 35.695312 83.25 C 35.695312 82.816406 36.050781 82.460938 36.484375 82.460938 C 36.917969 82.460938 37.273438 82.816406 37.273438 83.25 C 37.273438 83.683594 36.929688 84.039062 36.484375 84.039062 Z M 36.484375 84.039062 " fill-opacity="1" fill-rule="nonzero"/><g clip-path="url(#118997f6b3)"><path fill="#ff5a5f" d="M 48.621094 61.242188 C 48.101562 61.535156 47.578125 61.828125 47.082031 62.15625 C 42.296875 65.425781 37.503906 68.683594 32.707031 71.941406 C 28.023438 75.121094 23.332031 78.300781 18.636719 81.480469 C 18.648438 83.363281 18.648438 85.261719 18.636719 87.144531 C 20.785156 87.144531 22.9375 87.128906 25.085938 87.167969 C 25.085938 87.679688 25.085938 88.1875 25.074219 88.695312 C 25.074219 89.714844 25.074219 90.742188 25.097656 91.761719 C 26.410156 91.734375 27.71875 91.734375 29.042969 91.75 C 28.964844 88.007812 28.839844 84.253906 28.800781 80.515625 C 28.585938 79.371094 30.148438 79.472656 30.570312 78.773438 C 30.085938 77.90625 29.578125 77.03125 29.511719 76.050781 C 29.476562 75.566406 29.730469 75.097656 30.160156 74.878906 C 30.605469 74.652344 31.308594 74.535156 32.300781 75.019531 C 34.539062 75.757812 36.253906 77.5 38.125 78.875 C 38.125 78.835938 38.125 78.796875 38.125 78.757812 C 38.125 77.082031 39.488281 75.71875 41.167969 75.71875 C 42.847656 75.71875 44.207031 77.082031 44.207031 78.757812 C 44.207031 79.191406 44.117188 79.597656 43.953125 79.980469 C 44.523438 80.273438 45.136719 80.515625 45.582031 80.984375 C 45.835938 81.445312 45.632812 81.992188 45.59375 82.472656 C 44.996094 85.554688 44.472656 88.65625 43.875 91.734375 C 45.441406 91.734375 47.019531 91.734375 48.597656 91.75 C 48.683594 81.582031 48.632812 71.40625 48.621094 61.242188 Z M 38.902344 75.160156 C 37.933594 75.160156 37.160156 74.382812 37.160156 73.417969 C 37.160156 72.460938 37.933594 71.671875 38.902344 71.671875 C 39.855469 71.671875 40.644531 72.449219 40.644531 73.417969 C 40.644531 74.382812 39.867188 75.160156 38.902344 75.160156 Z M 43.355469 71.496094 C 42.515625 71.496094 41.828125 70.808594 41.828125 69.96875 C 41.828125 69.128906 42.515625 68.441406 43.355469 68.441406 C 44.195312 68.441406 44.882812 69.128906 44.882812 69.96875 C 44.882812 70.808594 44.207031 71.496094 43.355469 71.496094 Z M 43.355469 71.496094 " fill-opacity="1" fill-rule="nonzero"/></g><g clip-path="url(#1a2eb716e1)"><path fill="#ff5a5f" d="M 51.535156 63.289062 C 51.535156 62.578125 51.585938 61.863281 51.648438 61.152344 C 56.929688 64.765625 62.246094 68.328125 67.527344 71.953125 C 69.703125 73.429688 71.878906 74.90625 74.066406 76.378906 C 72.296875 77.308594 70.414062 77.933594 68.554688 78.671875 C 63.367188 80.730469 58.136719 82.664062 52.984375 84.828125 C 53.097656 85.058594 53.316406 85.488281 53.429688 85.71875 C 59.015625 83.464844 64.652344 81.328125 70.273438 79.140625 C 72.167969 78.503906 73.949219 77.4375 75.960938 77.207031 C 75.183594 78.238281 73.847656 78.46875 72.730469 78.9375 C 68.949219 80.425781 65.160156 81.824219 61.40625 83.378906 C 58.8125 84.34375 56.230469 85.363281 53.660156 86.394531 C 53.761719 86.671875 53.964844 87.21875 54.078125 87.488281 C 55.148438 87.195312 56.164062 86.597656 57.296875 86.546875 C 60.082031 87.003906 62.984375 86.238281 65.695312 87.285156 C 65.65625 87.90625 65.617188 88.515625 65.59375 89.140625 C 66.011719 89.179688 66.433594 89.21875 66.851562 89.253906 C 67.195312 90.082031 67.539062 90.910156 67.871094 91.734375 C 62.4375 91.75 56.992188 91.773438 51.558594 91.734375 C 51.523438 82.234375 51.523438 72.753906 51.535156 63.289062 Z M 56.609375 68.660156 C 56.40625 69.410156 56.203125 70.160156 55.910156 70.882812 C 55.414062 71.050781 54.917969 71.226562 54.421875 71.40625 C 54.96875 71.609375 55.515625 71.8125 56.078125 72.003906 C 56.230469 72.691406 56.40625 73.378906 56.609375 74.066406 C 56.789062 73.367188 56.914062 72.664062 57.042969 71.964844 C 57.730469 71.722656 58.429688 71.507812 59.140625 71.367188 C 58.457031 71.242188 57.78125 71.050781 57.105469 70.871094 C 56.929688 70.132812 56.777344 69.394531 56.609375 68.660156 Z M 62.804688 74.738281 C 62.015625 75.007812 61.214844 75.25 60.425781 75.503906 C 61.191406 75.71875 61.964844 75.910156 62.742188 76.074219 C 63.035156 77.066406 63.289062 78.074219 63.59375 79.050781 C 63.835938 78.046875 64.066406 77.054688 64.394531 76.074219 C 65.183594 75.910156 65.972656 75.730469 66.75 75.503906 C 65.949219 75.234375 65.132812 74.992188 64.332031 74.738281 C 64.054688 73.8125 63.835938 72.871094 63.59375 71.941406 C 63.289062 72.871094 63.0625 73.8125 62.804688 74.738281 Z M 62.804688 74.738281 " fill-opacity="1" fill-rule="nonzero"/></g><g clip-path="url(#783332b1d1)"><path fill="#ff5a5f" d="M 73.9375 79.839844 C 74.980469 79.421875 76.035156 78.976562 77.054688 78.480469 C 77.195312 78.570312 77.488281 78.734375 77.628906 78.824219 C 78.949219 79.675781 80.234375 80.589844 81.546875 81.46875 C 81.546875 83.351562 81.546875 85.246094 81.546875 87.128906 C 79.394531 87.144531 77.257812 87.105469 75.109375 87.15625 C 75.09375 88.464844 75.121094 89.765625 75.148438 91.074219 C 75.132812 91.238281 75.09375 91.570312 75.070312 91.734375 C 73.316406 91.734375 71.546875 91.761719 69.789062 91.683594 C 69.433594 90.679688 68.949219 89.714844 68.722656 88.671875 C 68.898438 88.210938 69.191406 87.792969 69.433594 87.359375 C 68.988281 87.042969 68.554688 86.722656 68.109375 86.40625 C 68.441406 85.78125 68.785156 85.171875 69.191406 84.597656 C 70.65625 82.894531 72.753906 81.800781 73.9375 79.839844 Z M 73.9375 79.839844 " fill-opacity="1" fill-rule="nonzero"/></g><path fill="#ff5a5f" d="M 38.34375 99.929688 C 39.09375 100.222656 40.125 100.222656 40.570312 101 C 40.59375 102.015625 39.371094 102.296875 38.710938 102.792969 C 38.558594 101.839844 38.429688 100.882812 38.34375 99.929688 Z M 38.34375 99.929688 " fill-opacity="1" fill-rule="nonzero"/><g clip-path="url(#77d08d5895)"><path fill="#ff5a5f" d="M 48.570312 100.007812 C 46.21875 100.261719 43.875 100.566406 41.523438 100.796875 C 43.863281 99.90625 46.242188 99.117188 48.597656 98.25 C 48.582031 97.792969 48.570312 97.335938 48.558594 96.878906 C 46.21875 97.945312 43.902344 99.117188 41.511719 100.109375 C 43.699219 98.390625 46 96.8125 48.203125 95.097656 C 40.480469 95.082031 32.746094 95.097656 25.023438 95.097656 C 25.007812 98.300781 25.023438 101.507812 25.023438 104.714844 C 25.734375 103.773438 26.484375 102.792969 27.441406 102.082031 C 27.949219 101.75 28.980469 101.242188 30.734375 101.050781 C 33.074219 100.746094 35.417969 100.402344 37.769531 100.121094 C 37.871094 101.011719 37.984375 101.890625 38.101562 102.769531 C 37.539062 102.855469 36.96875 102.945312 36.410156 103.035156 C 36.890625 104.242188 37.414062 105.488281 38.328125 106.445312 C 38.976562 107.167969 39.984375 107.589844 40.25 108.59375 C 37.234375 108.378906 34.957031 105.984375 33.925781 103.300781 C 33.140625 104.992188 33.292969 106.914062 33.050781 108.722656 C 31.675781 108.925781 30.300781 109.101562 28.929688 109.28125 C 28.585938 108.554688 28.242188 107.816406 27.898438 107.09375 C 26.957031 107.21875 25.976562 107.246094 25.074219 107.550781 C 24.957031 110.757812 25.097656 113.964844 24.996094 117.167969 C 25.035156 118.238281 25.035156 119.292969 25.035156 120.363281 C 25.734375 120.363281 26.421875 120.363281 27.121094 120.375 C 27.285156 118.175781 27.59375 115.921875 28.738281 114 C 27.578125 113.480469 27.746094 111.964844 28.050781 110.972656 C 28.585938 109.6875 30.097656 109.625 31.28125 109.460938 C 32.222656 109.394531 33.316406 109.039062 34.15625 109.675781 C 35.125 110.324219 35.175781 111.582031 35.402344 112.613281 C 35.148438 112.78125 34.894531 112.945312 34.652344 113.109375 C 36.714844 115.019531 37.605469 117.78125 38.417969 120.386719 C 41.816406 120.363281 45.210938 120.425781 48.609375 120.363281 C 48.609375 114.597656 48.597656 108.835938 48.609375 103.074219 C 46.253906 102.5 43.902344 101.890625 41.535156 101.382812 C 43.890625 101.277344 46.253906 101.226562 48.609375 101.214844 C 48.582031 100.808594 48.570312 100.402344 48.570312 100.007812 Z M 38.710938 102.792969 C 38.558594 101.839844 38.429688 100.882812 38.34375 99.929688 C 39.09375 100.222656 40.125 100.222656 40.570312 101 C 40.582031 102.015625 39.359375 102.296875 38.710938 102.792969 Z M 38.710938 102.792969 " fill-opacity="1" fill-rule="nonzero"/></g><g clip-path="url(#ab62cf5757)"><path fill="#ff5a5f" d="M 51.457031 95.121094 C 54.382812 95.058594 57.324219 95.058594 60.25 95.109375 C 59.867188 95.59375 59.472656 96.0625 59.117188 96.558594 C 58.722656 97.285156 58.417969 98.058594 58.125 98.824219 C 57.960938 98.886719 57.628906 99 57.476562 99.066406 C 57.488281 100.109375 57.566406 101.164062 57.359375 102.195312 C 56.484375 106.445312 55.605469 110.707031 54.765625 114.96875 C 54.5625 116 54.089844 116.953125 53.632812 117.894531 C 52.894531 117.867188 52.144531 117.832031 51.40625 117.804688 C 51.558594 110.234375 51.445312 102.679688 51.457031 95.121094 Z M 51.457031 95.121094 " fill-opacity="1" fill-rule="nonzero"/></g><g clip-path="url(#b3b5c43a27)"><path fill="#ff5a5f" d="M 60.171875 96.777344 C 60.808594 96.074219 61.457031 95.058594 62.527344 95.082031 C 64.21875 95.03125 65.910156 95.109375 67.601562 95.070312 C 68.226562 95.605469 68.847656 96.152344 69.394531 96.761719 C 70.542969 98.46875 70.832031 100.554688 70.707031 102.5625 C 70.578125 102.679688 70.324219 102.90625 70.199219 103.035156 C 70.183594 103.25 70.171875 103.683594 70.160156 103.914062 C 69.957031 103.925781 69.546875 103.949219 69.34375 103.964844 C 69.117188 104.574219 68.949219 105.222656 68.605469 105.78125 C 67.652344 106.621094 66.484375 107.195312 65.667969 108.1875 C 63.0625 111.101562 62.171875 115.121094 61.8125 118.910156 C 61.484375 118.960938 61.152344 119.011719 60.820312 119.066406 C 60.746094 119.496094 60.65625 119.917969 60.578125 120.347656 C 60.210938 120.335938 59.84375 120.324219 59.472656 120.273438 C 59.410156 120.160156 59.292969 119.917969 59.230469 119.800781 C 59.003906 119.34375 58.773438 118.886719 58.542969 118.441406 C 57.640625 118.328125 56.738281 118.226562 55.835938 118.136719 C 55.820312 117.117188 55.734375 116.085938 55.972656 115.09375 C 56.878906 110.757812 57.742188 106.40625 58.644531 102.066406 C 58.785156 100.898438 59.957031 99.839844 59.359375 98.632812 C 59.585938 97.996094 59.855469 97.375 60.171875 96.777344 Z M 60.171875 96.777344 " fill-opacity="1" fill-rule="nonzero"/></g><g clip-path="url(#4f8e68c4d7)"><path fill="#ff5a5f" d="M 69.28125 95.109375 C 71.191406 95.121094 73.125 94.945312 75.019531 95.210938 C 75.082031 103.582031 75.019531 111.953125 75.042969 120.324219 C 74.574219 120.335938 74.101562 120.335938 73.632812 120.347656 C 73.683594 120.160156 73.773438 119.765625 73.8125 119.5625 C 74.359375 117.816406 73.46875 116.113281 72.03125 115.132812 C 72.410156 111.507812 72.601562 107.867188 72.894531 104.242188 C 72.691406 104.21875 72.296875 104.167969 72.105469 104.140625 C 71.648438 101.484375 71.992188 98.503906 70.25 96.226562 C 69.941406 95.847656 69.613281 95.476562 69.28125 95.109375 Z M 69.28125 95.109375 " fill-opacity="1" fill-rule="nonzero"/></g><g clip-path="url(#3d4733f12c)"><path fill="#ff5a5f" d="M 72.257812 118.480469 C 72.257812 118.722656 72.210938 118.960938 72.117188 119.183594 C 72.023438 119.410156 71.890625 119.609375 71.71875 119.785156 C 71.546875 119.957031 71.347656 120.089844 71.121094 120.183594 C 70.894531 120.277344 70.660156 120.324219 70.414062 120.324219 C 70.167969 120.324219 69.933594 120.277344 69.707031 120.183594 C 69.480469 120.089844 69.28125 119.957031 69.109375 119.785156 C 68.9375 119.609375 68.804688 119.410156 68.710938 119.183594 C 68.617188 118.960938 68.570312 118.722656 68.570312 118.480469 C 68.570312 118.234375 68.617188 118 68.710938 117.773438 C 68.804688 117.546875 68.9375 117.347656 69.109375 117.175781 C 69.28125 117 69.480469 116.867188 69.707031 116.773438 C 69.933594 116.679688 70.167969 116.632812 70.414062 116.632812 C 70.660156 116.632812 70.894531 116.679688 71.121094 116.773438 C 71.347656 116.867188 71.546875 117 71.71875 117.175781 C 71.890625 117.347656 72.023438 117.546875 72.117188 117.773438 C 72.210938 118 72.257812 118.234375 72.257812 118.480469 Z M 72.257812 118.480469 " fill-opacity="1" fill-rule="nonzero"/></g><path fill="#ff3131" d="M 204.320312 121.972656 L 352.0625 121.972656 L 352.0625 138.289062 L 204.320312 138.289062 L 204.320312 121.972656 " fill-opacity="1" fill-rule="nonzero"/><g fill="#ffffff" fill-opacity="1"><g transform="translate(205.760372, 134.448545)"><g><path d="M 5.09375 -6.90625 C 4.59375 -6.90625 4.144531 -6.75 3.75 -6.4375 C 3.351562 -6.132812 3.035156 -5.6875 2.796875 -5.09375 C 2.554688 -4.507812 2.4375 -3.878906 2.4375 -3.203125 C 2.4375 -2.578125 2.5625 -2.109375 2.8125 -1.796875 C 3.070312 -1.492188 3.484375 -1.34375 4.046875 -1.34375 C 4.597656 -1.34375 5.234375 -1.488281 5.953125 -1.78125 L 5.953125 -0.328125 C 5.203125 -0.0351562 4.453125 0.109375 3.703125 0.109375 C 2.753906 0.109375 2.015625 -0.164062 1.484375 -0.71875 C 0.953125 -1.28125 0.6875 -2.078125 0.6875 -3.109375 C 0.6875 -4.085938 0.878906 -4.988281 1.265625 -5.8125 C 1.660156 -6.644531 2.179688 -7.273438 2.828125 -7.703125 C 3.484375 -8.128906 4.238281 -8.34375 5.09375 -8.34375 C 5.5625 -8.34375 5.972656 -8.300781 6.328125 -8.21875 C 6.691406 -8.132812 7.082031 -7.984375 7.5 -7.765625 L 6.84375 -6.359375 C 6.445312 -6.578125 6.117188 -6.722656 5.859375 -6.796875 C 5.597656 -6.867188 5.34375 -6.90625 5.09375 -6.90625 Z M 5.09375 -6.90625 "/></g></g></g><g fill="#ffffff" fill-opacity="1"><g transform="translate(215.685826, 134.448545)"><g><path d="M 0.296875 0 L 2.03125 -8.21875 L 3.75 -8.21875 L 2.3125 -1.4375 L 5.203125 -1.4375 L 4.890625 0 Z M 0.296875 0 "/></g></g></g><g fill="#ffffff" fill-opacity="1"><g transform="translate(224.531569, 134.448545)"><g><path d="M 4.890625 0 L 0.296875 0 L 2.03125 -8.21875 L 6.640625 -8.21875 L 6.328125 -6.796875 L 3.453125 -6.796875 L 3.078125 -4.984375 L 5.765625 -4.984375 L 5.453125 -3.5625 L 2.765625 -3.5625 L 2.3125 -1.4375 L 5.203125 -1.4375 Z M 4.890625 0 "/></g></g></g><g fill="#ffffff" fill-opacity="1"><g transform="translate(233.652864, 134.448545)"><g><path d="M 4.734375 -1.953125 L 2.078125 -1.953125 L 1.109375 0 L -0.6875 0 L 3.609375 -8.25 L 5.71875 -8.25 L 6.546875 0 L 4.875 0 Z M 4.65625 -3.421875 L 4.5 -5.390625 C 4.46875 -5.878906 4.453125 -6.351562 4.453125 -6.8125 L 4.453125 -7.015625 C 4.285156 -6.566406 4.078125 -6.085938 3.828125 -5.578125 L 2.78125 -3.421875 Z M 4.65625 -3.421875 "/></g></g></g><g fill="#ffffff" fill-opacity="1"><g transform="translate(243.763893, 134.448545)"><g><path d="M 7.015625 0 L 5.09375 0 L 3.09375 -6.21875 L 3.046875 -6.21875 L 3.03125 -6.03125 C 2.90625 -5.226562 2.78125 -4.507812 2.65625 -3.875 L 1.84375 0 L 0.296875 0 L 2.03125 -8.21875 L 4.046875 -8.21875 L 5.953125 -2.171875 L 5.984375 -2.171875 C 6.023438 -2.453125 6.09375 -2.851562 6.1875 -3.375 C 6.289062 -3.90625 6.628906 -5.519531 7.203125 -8.21875 L 8.75 -8.21875 Z M 7.015625 0 "/></g></g></g><g fill="#ffffff" fill-opacity="1"><g transform="translate(255.337027, 134.448545)"><g><path d="M 0.296875 0 L 2.046875 -8.21875 L 3.765625 -8.21875 L 2.015625 0 Z M 0.296875 0 "/></g></g></g><g fill="#ffffff" fill-opacity="1"><g transform="translate(261.92213, 134.448545)"><g><path d="M 7.015625 0 L 5.09375 0 L 3.09375 -6.21875 L 3.046875 -6.21875 L 3.03125 -6.03125 C 2.90625 -5.226562 2.78125 -4.507812 2.65625 -3.875 L 1.84375 0 L 0.296875 0 L 2.03125 -8.21875 L 4.046875 -8.21875 L 5.953125 -2.171875 L 5.984375 -2.171875 C 6.023438 -2.453125 6.09375 -2.851562 6.1875 -3.375 C 6.289062 -3.90625 6.628906 -5.519531 7.203125 -8.21875 L 8.75 -8.21875 Z M 7.015625 0 "/></g></g></g><g fill="#ffffff" fill-opacity="1"><g transform="translate(273.495265, 134.448545)"><g><path d="M 4.234375 -4.609375 L 7.40625 -4.609375 L 6.5 -0.328125 C 5.988281 -0.160156 5.519531 -0.046875 5.09375 0.015625 C 4.664062 0.078125 4.210938 0.109375 3.734375 0.109375 C 2.765625 0.109375 2.015625 -0.164062 1.484375 -0.71875 C 0.953125 -1.269531 0.6875 -2.0625 0.6875 -3.09375 C 0.6875 -4.09375 0.882812 -5 1.28125 -5.8125 C 1.6875 -6.625 2.253906 -7.25 2.984375 -7.6875 C 3.710938 -8.125 4.550781 -8.34375 5.5 -8.34375 C 6.320312 -8.34375 7.09375 -8.160156 7.8125 -7.796875 L 7.15625 -6.375 C 6.882812 -6.53125 6.609375 -6.648438 6.328125 -6.734375 C 6.054688 -6.828125 5.753906 -6.875 5.421875 -6.875 C 4.847656 -6.875 4.332031 -6.71875 3.875 -6.40625 C 3.425781 -6.09375 3.070312 -5.648438 2.8125 -5.078125 C 2.5625 -4.503906 2.4375 -3.882812 2.4375 -3.21875 C 2.4375 -2.570312 2.570312 -2.097656 2.84375 -1.796875 C 3.113281 -1.492188 3.53125 -1.34375 4.09375 -1.34375 C 4.382812 -1.34375 4.707031 -1.390625 5.0625 -1.484375 L 5.421875 -3.171875 L 3.921875 -3.171875 Z M 4.234375 -4.609375 "/></g></g></g><g fill="#ffffff" fill-opacity="1"><g transform="translate(284.320476, 134.448545)"><g/></g></g><g fill="#ffffff" fill-opacity="1"><g transform="translate(290.191395, 134.448545)"><g><path d="M 5.3125 -2.421875 C 5.3125 -1.640625 5.035156 -1.019531 4.484375 -0.5625 C 3.929688 -0.113281 3.179688 0.109375 2.234375 0.109375 C 1.398438 0.109375 0.734375 -0.0546875 0.234375 -0.390625 L 0.234375 -1.9375 C 0.953125 -1.53125 1.625 -1.328125 2.25 -1.328125 C 2.664062 -1.328125 2.988281 -1.40625 3.21875 -1.5625 C 3.457031 -1.726562 3.578125 -1.945312 3.578125 -2.21875 C 3.578125 -2.382812 3.550781 -2.523438 3.5 -2.640625 C 3.457031 -2.765625 3.390625 -2.878906 3.296875 -2.984375 C 3.203125 -3.085938 2.96875 -3.28125 2.59375 -3.5625 C 2.070312 -3.925781 1.707031 -4.289062 1.5 -4.65625 C 1.289062 -5.019531 1.1875 -5.414062 1.1875 -5.84375 C 1.1875 -6.320312 1.300781 -6.75 1.53125 -7.125 C 1.769531 -7.507812 2.101562 -7.804688 2.53125 -8.015625 C 2.957031 -8.234375 3.453125 -8.34375 4.015625 -8.34375 C 4.828125 -8.34375 5.566406 -8.15625 6.234375 -7.78125 L 5.625 -6.46875 C 5.039062 -6.75 4.503906 -6.890625 4.015625 -6.890625 C 3.703125 -6.890625 3.445312 -6.800781 3.25 -6.625 C 3.050781 -6.457031 2.953125 -6.238281 2.953125 -5.96875 C 2.953125 -5.738281 3.007812 -5.535156 3.125 -5.359375 C 3.25 -5.191406 3.53125 -4.96875 3.96875 -4.6875 C 4.414062 -4.382812 4.75 -4.050781 4.96875 -3.6875 C 5.195312 -3.332031 5.3125 -2.910156 5.3125 -2.421875 Z M 5.3125 -2.421875 "/></g></g></g><g fill="#ffffff" fill-opacity="1"><g transform="translate(299.172103, 134.448545)"><g><path d="M 4.890625 0 L 0.296875 0 L 2.03125 -8.21875 L 6.640625 -8.21875 L 6.328125 -6.796875 L 3.453125 -6.796875 L 3.078125 -4.984375 L 5.765625 -4.984375 L 5.453125 -3.5625 L 2.765625 -3.5625 L 2.3125 -1.4375 L 5.203125 -1.4375 Z M 4.890625 0 "/></g></g></g><g fill="#ffffff" fill-opacity="1"><g transform="translate(308.293398, 134.448545)"><g><path d="M 2.984375 -4.578125 L 3.421875 -4.578125 C 3.910156 -4.578125 4.289062 -4.679688 4.5625 -4.890625 C 4.832031 -5.109375 4.96875 -5.4375 4.96875 -5.875 C 4.96875 -6.175781 4.878906 -6.40625 4.703125 -6.5625 C 4.523438 -6.71875 4.25 -6.796875 3.875 -6.796875 L 3.453125 -6.796875 Z M 2.6875 -3.15625 L 2.015625 0 L 0.296875 0 L 2.03125 -8.21875 L 4.046875 -8.21875 C 4.941406 -8.21875 5.609375 -8.023438 6.046875 -7.640625 C 6.492188 -7.265625 6.71875 -6.707031 6.71875 -5.96875 C 6.71875 -5.375 6.5625 -4.863281 6.25 -4.4375 C 5.945312 -4.007812 5.503906 -3.691406 4.921875 -3.484375 L 6.375 0 L 4.515625 0 L 3.34375 -3.15625 Z M 2.6875 -3.15625 "/></g></g></g><g fill="#ffffff" fill-opacity="1"><g transform="translate(318.18511, 134.448545)"><g><path d="M 3.015625 -1.6875 C 3.304688 -2.507812 3.507812 -3.035156 3.625 -3.265625 L 6.0625 -8.21875 L 7.828125 -8.21875 L 3.625 0 L 1.75 0 L 1.03125 -8.21875 L 2.6875 -8.21875 L 2.984375 -3.265625 C 2.992188 -3.097656 3 -2.851562 3 -2.53125 C 2.988281 -2.144531 2.976562 -1.863281 2.96875 -1.6875 Z M 3.015625 -1.6875 "/></g></g></g><g fill="#ffffff" fill-opacity="1"><g transform="translate(327.857506, 134.448545)"><g><path d="M 0.296875 0 L 2.046875 -8.21875 L 3.765625 -8.21875 L 2.015625 0 Z M 0.296875 0 "/></g></g></g><g fill="#ffffff" fill-opacity="1"><g transform="translate(334.442609, 134.448545)"><g><path d="M 5.09375 -6.90625 C 4.59375 -6.90625 4.144531 -6.75 3.75 -6.4375 C 3.351562 -6.132812 3.035156 -5.6875 2.796875 -5.09375 C 2.554688 -4.507812 2.4375 -3.878906 2.4375 -3.203125 C 2.4375 -2.578125 2.5625 -2.109375 2.8125 -1.796875 C 3.070312 -1.492188 3.484375 -1.34375 4.046875 -1.34375 C 4.597656 -1.34375 5.234375 -1.488281 5.953125 -1.78125 L 5.953125 -0.328125 C 5.203125 -0.0351562 4.453125 0.109375 3.703125 0.109375 C 2.753906 0.109375 2.015625 -0.164062 1.484375 -0.71875 C 0.953125 -1.28125 0.6875 -2.078125 0.6875 -3.109375 C 0.6875 -4.085938 0.878906 -4.988281 1.265625 -5.8125 C 1.660156 -6.644531 2.179688 -7.273438 2.828125 -7.703125 C 3.484375 -8.128906 4.238281 -8.34375 5.09375 -8.34375 C 5.5625 -8.34375 5.972656 -8.300781 6.328125 -8.21875 C 6.691406 -8.132812 7.082031 -7.984375 7.5 -7.765625 L 6.84375 -6.359375 C 6.445312 -6.578125 6.117188 -6.722656 5.859375 -6.796875 C 5.597656 -6.867188 5.34375 -6.90625 5.09375 -6.90625 Z M 5.09375 -6.90625 "/></g></g></g><g fill="#ffffff" fill-opacity="1"><g transform="translate(344.368062, 134.448545)"><g><path d="M 4.890625 0 L 0.296875 0 L 2.03125 -8.21875 L 6.640625 -8.21875 L 6.328125 -6.796875 L 3.453125 -6.796875 L 3.078125 -4.984375 L 5.765625 -4.984375 L 5.453125 -3.5625 L 2.765625 -3.5625 L 2.3125 -1.4375 L 5.203125 -1.4375 Z M 4.890625 0 "/></g></g></g></svg>