<svg xmlns="http://www.w3.org/2000/svg" xmlns:xlink="http://www.w3.org/1999/xlink" width="500" zoomAndPan="magnify" viewBox="0 0 375 149.999998" height="200" preserveAspectRatio="xMidYMid meet" version="1.0"><defs><g/><clipPath id="1b95191930"><path d="M 153 84 L 158 84 L 158 87.828125 L 153 87.828125 Z M 153 84 " clip-rule="nonzero"/></clipPath><clipPath id="b84246c405"><path d="M 147 72.828125 L 158 72.828125 L 158 76 L 147 76 Z M 147 72.828125 " clip-rule="nonzero"/></clipPath><clipPath id="aadde41938"><path d="M 138.097656 75 L 143 75 L 143 80 L 138.097656 80 Z M 138.097656 75 " clip-rule="nonzero"/></clipPath><clipPath id="4f46d9d498"><path d="M 138.097656 80 L 145 80 L 145 83 L 138.097656 83 Z M 138.097656 80 " clip-rule="nonzero"/></clipPath><clipPath id="f658d9c5cb"><path d="M 138.097656 80 L 143 80 L 143 84 L 138.097656 84 Z M 138.097656 80 " clip-rule="nonzero"/></clipPath><clipPath id="852b4b36d9"><path d="M 157 76 L 164.347656 76 L 164.347656 82 L 157 82 Z M 157 76 " clip-rule="nonzero"/></clipPath><clipPath id="b357c3c0ac"><path d="M 64 0 L 156 0 L 156 75 L 64 75 Z M 64 0 " clip-rule="nonzero"/></clipPath><clipPath id="90ca2ceba9"><path d="M 120.308594 -9.25 L 178.113281 48.554688 L 121.367188 105.300781 L 63.5625 47.492188 Z M 120.308594 -9.25 " clip-rule="nonzero"/></clipPath><clipPath id="ed2ffc8150"><path d="M 120.308594 -9.25 L 178.113281 48.554688 L 121.367188 105.300781 L 63.5625 47.492188 Z M 120.308594 -9.25 " clip-rule="nonzero"/></clipPath><clipPath id="070b783af5"><path d="M 18.554688 61.589844 L 48.554688 61.589844 L 48.554688 92.339844 L 18.554688 92.339844 Z M 18.554688 61.589844 " clip-rule="nonzero"/></clipPath><clipPath id="e4062e1044"><path d="M 51.699219 61.484375 L 76 61.484375 L 76 92.234375 L 51.699219 92.234375 Z M 51.699219 61.484375 " clip-rule="nonzero"/></clipPath><clipPath id="7a2c0723d5"><path d="M 68 78 L 81.667969 78 L 81.667969 92.234375 L 68 92.234375 Z M 68 78 " clip-rule="nonzero"/></clipPath><clipPath id="fedea82386"><path d="M 24.964844 95.730469 L 48.964844 95.730469 L 48.964844 120.523438 L 24.964844 120.523438 Z M 24.964844 95.730469 " clip-rule="nonzero"/></clipPath><clipPath id="bab21e88de"><path d="M 51.699219 95.738281 L 61 95.738281 L 61 119 L 51.699219 119 Z M 51.699219 95.738281 " clip-rule="nonzero"/></clipPath><clipPath id="c89303aa15"><path d="M 55 95.738281 L 71 95.738281 L 71 120.523438 L 55 120.523438 Z M 55 95.738281 " clip-rule="nonzero"/></clipPath><clipPath id="079e39a98d"><path d="M 69 95.738281 L 74.949219 95.738281 L 74.949219 120.523438 L 69 120.523438 Z M 69 95.738281 " clip-rule="nonzero"/></clipPath><clipPath id="50e753a7b1"><path d="M 68 117 L 73 117 L 73 120.523438 L 68 120.523438 Z M 68 117 " clip-rule="nonzero"/></clipPath></defs><g fill="#ffffff" fill-opacity="1"><g transform="translate(82.490829, 118.934479)"><g><path d="M 19.984375 1.484375 C 16.484375 1.484375 13.644531 0.410156 11.46875 -1.734375 C 9.300781 -3.878906 8.21875 -6.65625 8.21875 -10.0625 L 8.21875 -32.71875 L 0 -32.71875 L 0 -37.390625 L 8.21875 -37.390625 L 8.21875 -48.484375 L 13.84375 -49.828125 L 13.84375 -37.390625 L 30.578125 -37.390625 L 30.578125 -32.71875 L 13.84375 -32.71875 L 13.84375 -10.65625 C 13.84375 -8.539062 14.445312 -6.800781 15.65625 -5.4375 C 16.863281 -4.082031 18.476562 -3.40625 20.5 -3.40625 C 22.375 -3.40625 24.085938 -4.054688 25.640625 -5.359375 C 27.203125 -6.671875 28.15625 -8.535156 28.5 -10.953125 L 33.09375 -9.03125 C 32.75 -6.863281 31.945312 -4.988281 30.6875 -3.40625 C 29.425781 -1.820312 27.859375 -0.613281 25.984375 0.21875 C 24.109375 1.0625 22.109375 1.484375 19.984375 1.484375 Z M 19.984375 1.484375 "/></g></g></g><g fill="#ffffff" fill-opacity="1"><g transform="translate(112.1773, 118.934479)"><g><path d="M 7.109375 -44.640625 C 5.867188 -44.640625 4.867188 -45.019531 4.109375 -45.78125 C 3.347656 -46.550781 2.96875 -47.550781 2.96875 -48.78125 C 2.96875 -50.019531 3.347656 -51.007812 4.109375 -51.75 C 4.867188 -52.488281 5.867188 -52.859375 7.109375 -52.859375 C 8.335938 -52.859375 9.347656 -52.488281 10.140625 -51.75 C 10.929688 -51.007812 11.328125 -50.019531 11.328125 -48.78125 C 11.328125 -47.550781 10.929688 -46.550781 10.140625 -45.78125 C 9.347656 -45.019531 8.335938 -44.640625 7.109375 -44.640625 Z M 4.21875 0 L 4.21875 -37.390625 L 9.84375 -37.390625 L 9.84375 0 Z M 4.21875 0 "/></g></g></g><g fill="#ffffff" fill-opacity="1"><g transform="translate(122.763602, 118.934479)"><g><path d="M 21.25 1.484375 C 17.59375 1.484375 14.332031 0.609375 11.46875 -1.140625 C 8.613281 -2.898438 6.359375 -5.296875 4.703125 -8.328125 C 3.046875 -11.359375 2.21875 -14.800781 2.21875 -18.65625 C 2.21875 -22.550781 3.03125 -26.015625 4.65625 -29.046875 C 6.289062 -32.085938 8.535156 -34.484375 11.390625 -36.234375 C 14.253906 -37.984375 17.515625 -38.859375 21.171875 -38.859375 C 24.285156 -38.859375 27.070312 -38.179688 29.53125 -36.828125 C 32 -35.472656 34.023438 -33.5625 35.609375 -31.09375 L 35.6875 -31.09375 L 35.6875 -54.40625 L 41.390625 -54.40625 L 41.390625 0 L 36.421875 0 L 35.90625 -6.4375 L 35.828125 -6.4375 C 34.253906 -3.96875 32.207031 -2.03125 29.6875 -0.625 C 27.164062 0.78125 24.351562 1.484375 21.25 1.484375 Z M 21.90625 -3.625 C 24.625 -3.625 27.03125 -4.289062 29.125 -5.625 C 31.226562 -6.957031 32.882812 -8.757812 34.09375 -11.03125 C 35.300781 -13.300781 35.90625 -15.84375 35.90625 -18.65625 C 35.90625 -21.519531 35.300781 -24.070312 34.09375 -26.3125 C 32.882812 -28.5625 31.226562 -30.351562 29.125 -31.6875 C 27.03125 -33.019531 24.625 -33.6875 21.90625 -33.6875 C 19.195312 -33.6875 16.78125 -33.019531 14.65625 -31.6875 C 12.53125 -30.351562 10.863281 -28.5625 9.65625 -26.3125 C 8.445312 -24.070312 7.84375 -21.519531 7.84375 -18.65625 C 7.84375 -15.789062 8.457031 -13.222656 9.6875 -10.953125 C 10.925781 -8.679688 12.609375 -6.890625 14.734375 -5.578125 C 16.859375 -4.273438 19.25 -3.625 21.90625 -3.625 Z M 21.90625 -3.625 "/></g></g></g><g fill="#ffffff" fill-opacity="1"><g transform="translate(164.147076, 118.934479)"><g><path d="M 18.0625 17.03125 C 13.425781 17.03125 9.453125 16.140625 6.140625 14.359375 C 2.835938 12.585938 0.46875 10.21875 -0.96875 7.25 L 3.84375 4 C 5.03125 6.363281 6.84375 8.273438 9.28125 9.734375 C 11.726562 11.191406 14.609375 11.921875 17.921875 11.921875 C 22.160156 11.921875 25.488281 10.796875 27.90625 8.546875 C 30.320312 6.304688 31.53125 3.210938 31.53125 -0.734375 L 31.53125 -4 L 31.46875 -4 C 30.175781 -1.820312 28.367188 -0.117188 26.046875 1.109375 C 23.734375 2.347656 21.269531 2.96875 18.65625 2.96875 C 15.539062 2.96875 12.835938 2.25 10.546875 0.8125 C 8.253906 -0.613281 6.460938 -2.570312 5.171875 -5.0625 C 3.890625 -7.5625 3.25 -10.390625 3.25 -13.546875 L 3.25 -37.390625 L 8.890625 -37.390625 L 8.890625 -13.546875 C 8.890625 -10.242188 9.8125 -7.515625 11.65625 -5.359375 C 13.507812 -3.210938 16.066406 -2.140625 19.328125 -2.140625 C 21.492188 -2.140625 23.5 -2.671875 25.34375 -3.734375 C 27.195312 -4.796875 28.679688 -6.238281 29.796875 -8.0625 C 30.910156 -9.894531 31.46875 -11.992188 31.46875 -14.359375 L 31.46875 -37.390625 L 37.09375 -37.390625 L 37.15625 -0.734375 C 37.15625 4.835938 35.441406 9.191406 32.015625 12.328125 C 28.585938 15.460938 23.9375 17.03125 18.0625 17.03125 Z M 18.0625 17.03125 "/></g></g></g><g fill="#ffffff" fill-opacity="1"><g transform="translate(201.310759, 118.934479)"><g><path d="M 23.765625 -38.859375 C 28.054688 -38.859375 31.4375 -37.5625 33.90625 -34.96875 C 36.375 -32.382812 37.609375 -28.773438 37.609375 -24.140625 L 37.609375 0 L 31.90625 0 L 31.90625 -23.546875 C 31.90625 -26.753906 31.03125 -29.296875 29.28125 -31.171875 C 27.53125 -33.046875 25.171875 -33.984375 22.203125 -33.984375 C 19.691406 -33.984375 17.472656 -33.4375 15.546875 -32.34375 C 13.617188 -31.257812 12.097656 -29.753906 10.984375 -27.828125 C 9.878906 -25.910156 9.328125 -23.664062 9.328125 -21.09375 L 9.328125 0 L 3.703125 0 L 3.703125 -37.390625 L 8.8125 -37.390625 L 9.328125 -31.828125 L 9.40625 -31.828125 C 10.976562 -34.097656 12.945312 -35.835938 15.3125 -37.046875 C 17.6875 -38.253906 20.503906 -38.859375 23.765625 -38.859375 Z M 23.765625 -38.859375 "/></g></g></g><g fill="#ffffff" fill-opacity="1"><g transform="translate(238.548473, 118.934479)"><g><path d="M 22.875 1.484375 C 18.925781 1.484375 15.382812 0.597656 12.25 -1.171875 C 9.113281 -2.953125 6.65625 -5.394531 4.875 -8.5 C 3.101562 -11.613281 2.21875 -15.144531 2.21875 -19.09375 C 2.21875 -22.945312 3.03125 -26.351562 4.65625 -29.3125 C 6.289062 -32.28125 8.550781 -34.613281 11.4375 -36.3125 C 14.320312 -38.007812 17.617188 -38.859375 21.328125 -38.859375 C 24.972656 -38.859375 28.148438 -38.007812 30.859375 -36.3125 C 33.578125 -34.613281 35.703125 -32.269531 37.234375 -29.28125 C 38.765625 -26.289062 39.554688 -22.875 39.609375 -19.03125 C 39.609375 -18.6875 39.609375 -18.328125 39.609375 -17.953125 C 39.609375 -17.578125 39.582031 -17.195312 39.53125 -16.8125 L 8.0625 -16.8125 C 8.363281 -14.238281 9.179688 -11.953125 10.515625 -9.953125 C 11.847656 -7.953125 13.585938 -6.394531 15.734375 -5.28125 C 17.878906 -4.175781 20.285156 -3.625 22.953125 -3.625 C 25.859375 -3.625 28.472656 -4.300781 30.796875 -5.65625 C 33.117188 -7.019531 34.796875 -8.710938 35.828125 -10.734375 L 40.71875 -8.734375 C 39.925781 -6.765625 38.65625 -5 36.90625 -3.4375 C 35.15625 -1.882812 33.082031 -0.675781 30.6875 0.1875 C 28.289062 1.050781 25.6875 1.484375 22.875 1.484375 Z M 8.140625 -21.765625 L 33.609375 -21.765625 C 33.265625 -25.566406 31.96875 -28.503906 29.71875 -30.578125 C 27.476562 -32.648438 24.65625 -33.6875 21.25 -33.6875 C 17.789062 -33.6875 14.875 -32.585938 12.5 -30.390625 C 10.132812 -28.191406 8.679688 -25.316406 8.140625 -21.765625 Z M 8.140625 -21.765625 "/></g></g></g><g fill="#ffffff" fill-opacity="1"><g transform="translate(277.340848, 118.934479)"><g><path d="M 19.171875 1.484375 C 16.066406 1.484375 13.21875 0.96875 10.625 -0.0625 C 8.03125 -1.101562 5.914062 -2.570312 4.28125 -4.46875 C 2.65625 -6.375 1.722656 -8.660156 1.484375 -11.328125 L 7.03125 -12.4375 C 7.28125 -9.875 8.539062 -7.765625 10.8125 -6.109375 C 13.082031 -4.453125 15.867188 -3.625 19.171875 -3.625 C 22.085938 -3.625 24.539062 -4.238281 26.53125 -5.46875 C 28.53125 -6.707031 29.53125 -8.289062 29.53125 -10.21875 C 29.53125 -11.644531 28.816406 -12.828125 27.390625 -13.765625 C 25.960938 -14.703125 23.664062 -15.492188 20.5 -16.140625 L 14.578125 -17.328125 C 10.679688 -18.160156 7.859375 -19.390625 6.109375 -21.015625 C 4.359375 -22.648438 3.484375 -24.828125 3.484375 -27.546875 C 3.523438 -29.710938 4.140625 -31.644531 5.328125 -33.34375 C 6.515625 -35.050781 8.144531 -36.394531 10.21875 -37.375 C 12.289062 -38.363281 14.660156 -38.859375 17.328125 -38.859375 C 21.273438 -38.859375 24.601562 -37.910156 27.3125 -36.015625 C 30.03125 -34.117188 31.734375 -31.640625 32.421875 -28.578125 L 27.015625 -27.09375 C 26.773438 -29.070312 25.753906 -30.703125 23.953125 -31.984375 C 22.148438 -33.265625 19.914062 -33.90625 17.25 -33.90625 C 14.882812 -33.90625 12.921875 -33.285156 11.359375 -32.046875 C 9.804688 -30.816406 9.003906 -29.410156 8.953125 -27.828125 C 8.953125 -26.453125 9.546875 -25.34375 10.734375 -24.5 C 11.921875 -23.664062 13.796875 -22.976562 16.359375 -22.4375 L 22.4375 -21.25 C 26.820312 -20.3125 30.015625 -19.015625 32.015625 -17.359375 C 34.015625 -15.703125 35.015625 -13.492188 35.015625 -10.734375 C 35.015625 -8.410156 34.320312 -6.320312 32.9375 -4.46875 C 31.5625 -2.625 29.675781 -1.171875 27.28125 -0.109375 C 24.882812 0.953125 22.179688 1.484375 19.171875 1.484375 Z M 19.171875 1.484375 "/></g></g></g><g fill="#ffffff" fill-opacity="1"><g transform="translate(310.136659, 118.934479)"><g><path d="M 19.984375 1.484375 C 16.484375 1.484375 13.644531 0.410156 11.46875 -1.734375 C 9.300781 -3.878906 8.21875 -6.65625 8.21875 -10.0625 L 8.21875 -32.71875 L 0 -32.71875 L 0 -37.390625 L 8.21875 -37.390625 L 8.21875 -48.484375 L 13.84375 -49.828125 L 13.84375 -37.390625 L 30.578125 -37.390625 L 30.578125 -32.71875 L 13.84375 -32.71875 L 13.84375 -10.65625 C 13.84375 -8.539062 14.445312 -6.800781 15.65625 -5.4375 C 16.863281 -4.082031 18.476562 -3.40625 20.5 -3.40625 C 22.375 -3.40625 24.085938 -4.054688 25.640625 -5.359375 C 27.203125 -6.671875 28.15625 -8.535156 28.5 -10.953125 L 33.09375 -9.03125 C 32.75 -6.863281 31.945312 -4.988281 30.6875 -3.40625 C 29.425781 -1.820312 27.859375 -0.613281 25.984375 0.21875 C 24.109375 1.0625 22.109375 1.484375 19.984375 1.484375 Z M 19.984375 1.484375 "/></g></g></g><path fill="#ffffff" d="M 161.042969 78.894531 C 160.921875 79.542969 160.945312 80.15625 161.320312 80.71875 C 161.585938 81.113281 162.355469 81.660156 162.808594 81.261719 C 162.878906 81.199219 162.847656 81.089844 162.777344 81.042969 C 162.613281 80.929688 162.429688 80.957031 162.238281 80.910156 C 161.972656 80.84375 161.761719 80.65625 161.601562 80.441406 C 161.3125 80.042969 161.136719 79.429688 161.210938 78.941406 C 161.226562 78.832031 161.0625 78.785156 161.042969 78.894531 Z M 161.042969 78.894531 " fill-opacity="1" fill-rule="nonzero"/><path fill="#ffffff" d="M 155.695312 86.285156 C 155.6875 86.382812 155.851562 86.40625 155.867188 86.308594 C 155.9375 85.828125 156.40625 85.328125 156.742188 85.003906 C 156.945312 84.816406 157.171875 84.667969 157.414062 84.542969 C 157.582031 84.453125 157.773438 84.449219 157.871094 84.273438 C 157.898438 84.222656 157.898438 84.136719 157.847656 84.09375 C 157.4375 83.769531 156.730469 84.441406 156.453125 84.714844 C 155.992188 85.164062 155.746094 85.65625 155.695312 86.285156 Z M 155.695312 86.285156 " fill-opacity="1" fill-rule="nonzero"/><g clip-path="url(#1b95191930)"><path fill="#ffffff" d="M 157.261719 84.886719 C 156.863281 85.300781 157.066406 85.964844 156.789062 86.453125 C 156.390625 87.144531 155.195312 87.25 154.3125 87.367188 C 154.792969 86.445312 154.960938 84.980469 156.035156 84.914062 C 156.136719 84.90625 156.140625 84.75 156.035156 84.75 C 154.527344 84.761719 154.503906 86.6875 153.660156 87.515625 C 153.496094 87.679688 153.664062 87.949219 153.882812 87.894531 C 154.933594 87.640625 156.058594 87.636719 156.949219 86.9375 C 157.425781 86.558594 157.609375 85.46875 157.425781 84.929688 C 157.402344 84.863281 157.316406 84.832031 157.261719 84.886719 Z M 157.261719 84.886719 " fill-opacity="1" fill-rule="nonzero"/></g><path fill="#ffffff" d="M 141.199219 79.011719 C 140.953125 78.636719 140.839844 78.191406 140.742188 77.757812 C 140.722656 77.679688 140.613281 77.6875 140.589844 77.757812 C 140.433594 78.261719 140.621094 78.761719 140.863281 79.207031 C 141.046875 79.546875 141.464844 80.148438 141.898438 80.125 C 142.003906 80.121094 142.058594 80.019531 142.011719 79.925781 C 141.933594 79.761719 141.796875 79.691406 141.65625 79.570312 C 141.472656 79.410156 141.332031 79.210938 141.199219 79.011719 Z M 141.199219 79.011719 " fill-opacity="1" fill-rule="nonzero"/><path fill="#ffffff" d="M 153.597656 75.265625 C 153.511719 75.257812 153.492188 75.402344 153.578125 75.421875 C 154.105469 75.523438 154.667969 75.539062 155.144531 75.804688 C 155.4375 75.964844 155.683594 76.1875 156.035156 76.144531 C 156.097656 76.136719 156.132812 76.070312 156.085938 76.019531 C 155.832031 75.726562 155.464844 75.496094 155.109375 75.347656 C 154.632812 75.148438 154.09375 75.296875 153.597656 75.265625 Z M 153.597656 75.265625 " fill-opacity="1" fill-rule="nonzero"/><path fill="#ffffff" d="M 151.300781 75.070312 C 151.382812 75.097656 151.441406 74.964844 151.363281 74.929688 C 150.777344 74.683594 150.332031 74.566406 149.703125 74.695312 C 149.089844 74.820312 148.6875 75.019531 148.007812 74.945312 C 147.597656 74.894531 147.1875 74.902344 146.78125 74.964844 C 145.886719 75.09375 144.457031 75.828125 144.640625 76.875 C 144.648438 76.917969 144.710938 76.910156 144.722656 76.875 C 145.117188 75.535156 146.820312 75.21875 148.007812 75.355469 C 149.175781 75.488281 150.210938 74.691406 151.300781 75.070312 Z M 151.300781 75.070312 " fill-opacity="1" fill-rule="nonzero"/><path fill="#ffffff" d="M 144.222656 75.644531 C 145.460938 74.703125 146.285156 74.320312 148.101562 74.261719 C 148.8125 74.238281 149.519531 74.039062 150.226562 74.027344 C 150.976562 74.019531 151.460938 74.476562 152.160156 74.585938 C 152.199219 74.597656 152.226562 74.582031 152.238281 74.539062 C 152.25 74.496094 152.234375 74.46875 152.195312 74.457031 C 151.621094 74.230469 151.246094 73.796875 150.617188 73.71875 C 149.632812 73.59375 148.644531 73.898438 147.648438 73.871094 C 146.367188 73.832031 144.890625 74.449219 144.09375 75.519531 C 144.039062 75.59375 144.152344 75.699219 144.222656 75.644531 Z M 144.222656 75.644531 " fill-opacity="1" fill-rule="nonzero"/><g clip-path="url(#b84246c405)"><path fill="#ffffff" d="M 147.773438 73.6875 C 149.597656 73.125 151.289062 72.96875 153.085938 73.667969 C 153.84375 73.960938 154.605469 73.984375 155.390625 74.167969 C 156.464844 74.417969 157.207031 74.890625 157.585938 75.828125 C 157.644531 75.972656 157.785156 75.925781 157.730469 75.753906 C 157.175781 74.027344 155.484375 73.730469 153.914062 73.507812 C 152.851562 73.359375 152.023438 72.835938 150.898438 72.855469 C 149.808594 72.875 148.757812 73.195312 147.726562 73.523438 C 147.621094 73.554688 147.667969 73.71875 147.773438 73.6875 Z M 147.773438 73.6875 " fill-opacity="1" fill-rule="nonzero"/></g><path fill="#ffffff" d="M 156.792969 75.613281 C 157.035156 76.027344 156.980469 76.570312 157.222656 76.957031 C 157.25 77.003906 157.292969 77.023438 157.347656 77.015625 C 157.402344 77.011719 157.4375 76.980469 157.453125 76.925781 C 157.605469 76.441406 157.242188 75.769531 156.953125 75.390625 C 156.625 74.964844 156.144531 74.683594 155.644531 74.511719 C 155.546875 74.476562 155.511719 74.625 155.601562 74.660156 C 156.113281 74.851562 156.515625 75.132812 156.792969 75.613281 Z M 156.792969 75.613281 " fill-opacity="1" fill-rule="nonzero"/><path fill="#ffffff" d="M 146.210938 77.613281 C 146.605469 77.679688 146.933594 78.003906 147.296875 78.15625 C 147.757812 78.347656 148.210938 78.429688 148.703125 78.492188 C 149.921875 78.648438 151.175781 78.765625 152.371094 78.460938 C 152.390625 78.457031 152.386719 78.421875 152.367188 78.425781 C 152.15625 78.449219 151.941406 78.460938 151.726562 78.457031 C 151.730469 78.441406 151.734375 78.425781 151.734375 78.410156 C 151.660156 77.1875 150.886719 76.394531 149.613281 76.261719 C 148.765625 76.171875 147.621094 76.878906 147.570312 77.746094 C 147.566406 77.839844 147.71875 77.863281 147.734375 77.769531 C 147.886719 76.933594 148.957031 76.523438 149.703125 76.632812 C 150.683594 76.78125 151.15625 77.589844 151.417969 78.441406 C 150.882812 78.40625 150.351562 78.308594 149.8125 78.238281 C 148.890625 78.117188 148.011719 78.109375 147.171875 77.65625 C 146.179688 77.121094 143.519531 77.171875 143.492188 75.660156 C 143.488281 75.5625 143.347656 75.5625 143.339844 75.660156 C 143.269531 77.199219 145.050781 77.40625 146.210938 77.613281 Z M 146.210938 77.613281 " fill-opacity="1" fill-rule="nonzero"/><path fill="#ffffff" d="M 157.996094 77.011719 C 158.261719 76.945312 158.296875 76.617188 158.308594 76.382812 C 158.324219 76.058594 158.195312 75.789062 158.136719 75.480469 C 158.121094 75.390625 157.96875 75.410156 157.976562 75.5 C 158.003906 75.730469 158 75.988281 158.003906 76.21875 C 158.007812 76.46875 157.832031 76.664062 157.84375 76.894531 C 157.84375 76.996094 157.894531 77.035156 157.996094 77.011719 Z M 157.996094 77.011719 " fill-opacity="1" fill-rule="nonzero"/><path fill="#ffffff" d="M 143.035156 77.726562 C 143.507812 78.039062 144.070312 78.164062 144.472656 78.585938 C 144.730469 78.855469 144.949219 79.003906 145.296875 79.132812 C 145.628906 79.253906 146.09375 79.1875 146.425781 79.140625 C 147.273438 79.023438 147.964844 79.019531 148.785156 79.269531 C 149.382812 79.453125 150.007812 79.488281 150.632812 79.429688 C 151.386719 79.363281 152.132812 79.199219 152.894531 79.164062 C 153.382812 79.136719 153.867188 79.125 154.351562 79.042969 C 155.339844 78.871094 156.492188 78.558594 157.222656 77.824219 C 157.601562 77.441406 157.769531 76.984375 157.726562 76.449219 C 157.726562 76.398438 157.699219 76.371094 157.648438 76.371094 C 157.59375 76.371094 157.570312 76.398438 157.570312 76.449219 C 157.488281 77.480469 156.730469 77.96875 155.777344 78.246094 C 155.960938 77 154.527344 76.09375 153.453125 76.1875 C 153.324219 75.671875 152.492188 75.511719 152.0625 75.5 C 151.421875 75.484375 150.734375 75.707031 150.464844 76.316406 C 150.421875 76.40625 150.542969 76.484375 150.601562 76.394531 C 150.859375 76 151.519531 75.875 151.949219 75.859375 C 152.191406 75.851562 152.425781 75.886719 152.65625 75.96875 C 152.820312 76.027344 152.914062 76.125 153.003906 76.234375 C 152.296875 76.367188 151.402344 76.75 151.566406 77.515625 C 151.582031 77.589844 151.699219 77.589844 151.714844 77.515625 C 151.863281 76.761719 152.757812 76.578125 153.414062 76.535156 C 154.667969 76.453125 155.457031 77.292969 155.484375 78.324219 C 154.859375 78.476562 154.21875 78.550781 153.585938 78.648438 C 152.933594 78.746094 152.324219 78.945312 151.664062 79.003906 C 150.972656 79.066406 150.277344 79.1875 149.585938 79.085938 C 148.84375 78.980469 148.191406 78.632812 147.425781 78.625 C 146.273438 78.613281 145.5 79.0625 144.558594 78.074219 C 143.871094 77.359375 142.78125 77.449219 142.824219 75.976562 C 142.824219 75.894531 142.703125 75.878906 142.683594 75.957031 C 142.53125 76.570312 142.410156 77.308594 143.035156 77.726562 Z M 143.035156 77.726562 " fill-opacity="1" fill-rule="nonzero"/><path fill="#ffffff" d="M 146.992188 76.074219 C 146.414062 76.15625 145.9375 76.382812 145.539062 76.800781 C 145.460938 76.882812 145.578125 76.996094 145.660156 76.921875 C 145.992188 76.628906 146.519531 76.511719 146.945312 76.433594 C 147.382812 76.359375 147.820312 76.480469 148.25 76.382812 C 148.316406 76.367188 148.339844 76.273438 148.289062 76.226562 C 147.9375 75.914062 147.425781 76.011719 146.992188 76.074219 Z M 146.992188 76.074219 " fill-opacity="1" fill-rule="nonzero"/><path fill="#ffffff" d="M 149.6875 80.941406 C 150.882812 80.761719 152.175781 80.488281 153.316406 80.074219 C 153.457031 80.023438 153.402344 79.808594 153.25 79.847656 C 151.464844 80.308594 149.585938 80.910156 147.777344 80.339844 C 145.945312 79.753906 144.386719 79.882812 143.238281 78.050781 C 143.1875 77.96875 143.050781 78.023438 143.082031 78.117188 C 143.621094 79.800781 145.269531 80.28125 146.851562 80.5 C 147.886719 80.640625 148.621094 81.105469 149.6875 80.941406 Z M 149.6875 80.941406 " fill-opacity="1" fill-rule="nonzero"/><path fill="#ffffff" d="M 157.800781 78.1875 C 157.875 78.105469 157.761719 77.988281 157.683594 78.066406 C 157.308594 78.449219 156.902344 78.804688 156.453125 79.097656 C 156.023438 79.375 155.523438 79.476562 155.09375 79.738281 C 154.992188 79.800781 155.046875 79.933594 155.148438 79.945312 C 156.261719 80.089844 157.164062 78.914062 157.800781 78.1875 Z M 157.800781 78.1875 " fill-opacity="1" fill-rule="nonzero"/><path fill="#ffffff" d="M 157.449219 74.65625 C 158.316406 75.128906 158.863281 76.085938 158.890625 77.058594 C 158.921875 78.222656 157.894531 78.5 157.296875 79.234375 C 157.238281 79.308594 157.296875 79.398438 157.386719 79.386719 C 158.488281 79.234375 159.214844 78.085938 159.289062 77.058594 C 159.375 75.875 158.496094 74.996094 157.53125 74.515625 C 157.4375 74.46875 157.355469 74.605469 157.449219 74.65625 Z M 157.449219 74.65625 " fill-opacity="1" fill-rule="nonzero"/><path fill="#ffffff" d="M 149.128906 81.457031 C 150.179688 81.15625 151.46875 81.429688 152.558594 81.332031 C 153.808594 81.21875 155.070312 80.90625 156.117188 80.207031 C 156.207031 80.144531 156.152344 79.984375 156.039062 80.023438 C 154.5625 80.527344 153.210938 80.921875 151.640625 81.050781 C 150.765625 81.121094 149.925781 80.996094 149.089844 81.3125 C 149 81.34375 149.035156 81.484375 149.128906 81.457031 Z M 149.128906 81.457031 " fill-opacity="1" fill-rule="nonzero"/><path fill="#ffffff" d="M 144.71875 81.195312 C 144.800781 81.929688 145.351562 82.425781 146.042969 82.667969 C 147.382812 83.140625 148.902344 83.445312 150.320312 83.308594 C 152.761719 83.066406 156.28125 82.742188 157.347656 80.085938 C 157.390625 79.980469 157.226562 79.890625 157.15625 79.976562 C 156.507812 80.753906 155.929688 81.410156 155.019531 81.90625 C 153.976562 82.476562 152.722656 82.585938 151.570312 82.746094 C 150.257812 82.929688 149.207031 83.050781 147.894531 82.78125 C 146.792969 82.554688 145.425781 82.394531 144.914062 81.210938 C 145.785156 81.664062 146.710938 82.152344 147.640625 82.359375 C 148.65625 82.582031 149.792969 82.289062 150.78125 82.078125 C 152.15625 81.78125 153.65625 81.894531 154.980469 81.433594 C 155.066406 81.402344 155.058594 81.261719 154.960938 81.269531 C 153.15625 81.449219 151.394531 81.757812 149.601562 81.984375 C 148.640625 82.109375 147.660156 82.085938 146.769531 81.664062 C 145.957031 81.277344 143.890625 80.660156 143.9375 79.582031 C 143.941406 79.492188 143.796875 79.472656 143.78125 79.5625 C 143.765625 79.664062 143.757812 79.765625 143.757812 79.867188 C 143.601562 79.628906 143.28125 79.582031 143.015625 79.515625 C 142.636719 79.417969 142.253906 79.425781 141.867188 79.40625 C 141.777344 79.402344 141.753906 79.550781 141.847656 79.566406 C 142.171875 79.617188 142.488281 79.710938 142.8125 79.792969 C 143.09375 79.867188 143.378906 80.074219 143.671875 80.042969 C 143.710938 80.035156 143.738281 80.019531 143.761719 79.988281 C 143.800781 80.386719 144.007812 80.746094 144.425781 80.957031 C 144.53125 81.011719 144.640625 81.066406 144.75 81.125 C 144.722656 81.140625 144.710938 81.164062 144.71875 81.195312 Z M 144.71875 81.195312 " fill-opacity="1" fill-rule="nonzero"/><path fill="#ffffff" d="M 150.703125 83.558594 C 150.339844 83.601562 149.980469 83.640625 149.613281 83.648438 C 149.519531 83.652344 149.519531 83.796875 149.613281 83.800781 C 150.3125 83.820312 151.257812 84.113281 151.855469 83.625 C 151.945312 83.550781 151.867188 83.414062 151.765625 83.410156 C 151.414062 83.390625 151.050781 83.515625 150.703125 83.558594 Z M 150.703125 83.558594 " fill-opacity="1" fill-rule="nonzero"/><g clip-path="url(#aadde41938)"><path fill="#ffffff" d="M 138.515625 79.1875 C 138.769531 79.191406 139.023438 79.210938 139.28125 79.210938 C 139.515625 79.210938 139.808594 79.3125 140.027344 79.238281 L 140.03125 79.238281 C 140.21875 79.480469 140.496094 79.613281 140.917969 79.574219 C 141.027344 79.5625 141.03125 79.390625 140.917969 79.398438 C 140.074219 79.464844 140.078125 78.320312 140.082031 77.746094 C 140.085938 77.308594 140.066406 76.71875 140.148438 76.21875 C 140.402344 76.476562 140.699219 76.691406 140.976562 76.9375 C 141.660156 77.539062 141.722656 78.316406 141.605469 79.128906 C 141.578125 79.300781 141.777344 79.332031 141.867188 79.167969 C 142.152344 78.632812 142.109375 77.800781 141.824219 77.265625 C 141.441406 76.550781 140.695312 76.246094 140.230469 75.605469 C 140.089844 75.40625 139.722656 75.519531 139.808594 75.785156 C 139.90625 76.078125 139.746094 76.585938 139.71875 76.886719 C 139.675781 77.367188 139.644531 77.878906 139.71875 78.359375 C 139.746094 78.5625 139.796875 78.761719 139.871094 78.953125 C 139.742188 78.921875 139.597656 78.929688 139.476562 78.933594 C 139.152344 78.9375 138.835938 79.015625 138.515625 79.03125 C 138.414062 79.03125 138.414062 79.183594 138.515625 79.1875 Z M 138.515625 79.1875 " fill-opacity="1" fill-rule="nonzero"/></g><g clip-path="url(#4f46d9d498)"><path fill="#ffffff" d="M 144.382812 81.578125 C 143.339844 81.210938 142.394531 80.683594 141.3125 80.421875 C 140.324219 80.1875 139.398438 80.480469 138.433594 80.675781 C 138.328125 80.695312 138.375 80.84375 138.472656 80.828125 C 139.691406 80.640625 140.753906 80.578125 141.9375 80.988281 C 142.007812 81.011719 142.082031 81.039062 142.152344 81.066406 C 141.527344 81.273438 140.820312 82.304688 140.253906 82.3125 C 140.199219 82.3125 140.183594 82.398438 140.242188 82.414062 C 140.691406 82.527344 140.976562 82.382812 141.328125 82.101562 C 141.535156 81.9375 141.722656 81.753906 141.941406 81.601562 C 142.167969 81.441406 142.429688 81.460938 142.65625 81.332031 C 142.679688 81.316406 142.695312 81.296875 142.707031 81.273438 C 143.242188 81.472656 143.78125 81.652344 144.367188 81.699219 C 144.4375 81.703125 144.441406 81.601562 144.382812 81.578125 Z M 144.382812 81.578125 " fill-opacity="1" fill-rule="nonzero"/></g><g clip-path="url(#f658d9c5cb)"><path fill="#ffffff" d="M 142.1875 81.691406 C 141.847656 82.484375 141.453125 82.945312 140.550781 83.042969 C 139.914062 83.113281 139.230469 82.925781 138.707031 82.554688 C 139.558594 82.011719 140.382812 80.726562 141.414062 81.394531 C 141.507812 81.453125 141.589844 81.308594 141.5 81.246094 C 140.242188 80.382812 139.378906 81.898438 138.304688 82.332031 C 138.175781 82.382812 138.097656 82.550781 138.21875 82.660156 C 139.332031 83.675781 142.503906 83.957031 142.449219 81.765625 C 142.445312 81.636719 142.246094 81.558594 142.1875 81.691406 Z M 142.1875 81.691406 " fill-opacity="1" fill-rule="nonzero"/></g><path fill="#ffffff" d="M 148.53125 83.5625 C 148.609375 83.527344 148.589844 83.386719 148.503906 83.371094 C 147.257812 83.128906 145.671875 83.875 144.703125 84.601562 C 144.617188 84.664062 144.699219 84.808594 144.785156 84.746094 C 145.347656 84.34375 146.019531 84.117188 146.683594 83.945312 C 147.289062 83.785156 147.960938 83.808594 148.53125 83.5625 Z M 148.53125 83.5625 " fill-opacity="1" fill-rule="nonzero"/><path fill="#ffffff" d="M 153.300781 84.058594 C 152.046875 83.796875 150.578125 84.066406 149.316406 84.1875 C 148.019531 84.308594 146.855469 84.867188 145.71875 85.464844 C 145.636719 85.507812 145.710938 85.628906 145.792969 85.589844 C 146.804688 85.128906 147.796875 84.789062 148.890625 84.585938 C 149.941406 84.390625 151.402344 84.210938 152.582031 84.316406 C 152.007812 84.574219 151.46875 84.894531 151.054688 85.386719 C 150.976562 85.480469 151.074219 85.625 151.1875 85.558594 C 151.910156 85.15625 152.519531 84.707031 153.300781 84.402344 C 153.449219 84.34375 153.488281 84.097656 153.300781 84.058594 Z M 153.300781 84.058594 " fill-opacity="1" fill-rule="nonzero"/><path fill="#ffffff" d="M 156.574219 84.179688 C 155.179688 84.230469 153.15625 84.558594 152.214844 85.722656 C 152.148438 85.804688 152.261719 85.917969 152.328125 85.835938 C 153.316406 84.640625 155.25 84.75 156.609375 84.464844 C 156.769531 84.429688 156.734375 84.175781 156.574219 84.179688 Z M 156.574219 84.179688 " fill-opacity="1" fill-rule="nonzero"/><path fill="#ffffff" d="M 160.714844 84.292969 C 160.238281 84.246094 159.730469 84.339844 159.25 84.347656 C 158.765625 84.359375 158.285156 84.375 157.804688 84.382812 C 157.714844 84.382812 157.71875 84.515625 157.804688 84.519531 C 158.75 84.5625 159.886719 84.992188 160.78125 84.53125 C 160.902344 84.46875 160.832031 84.300781 160.714844 84.292969 Z M 160.714844 84.292969 " fill-opacity="1" fill-rule="nonzero"/><path fill="#ffffff" d="M 163.90625 81.789062 C 161.339844 81.304688 158.535156 82.566406 156.003906 82.863281 C 155.917969 82.875 155.914062 83.011719 156.003906 83.003906 C 157.195312 82.914062 158.335938 82.738281 159.507812 82.511719 C 160.964844 82.234375 162.464844 82.273438 163.90625 81.992188 C 164.003906 81.972656 164.007812 81.808594 163.90625 81.789062 Z M 163.90625 81.789062 " fill-opacity="1" fill-rule="nonzero"/><path fill="#ffffff" d="M 161.539062 83.269531 C 160.378906 83.324219 159.222656 83.425781 158.058594 83.441406 C 157.082031 83.457031 156.128906 83.203125 155.160156 83.148438 C 155.792969 82.886719 156.394531 82.5625 156.960938 82.175781 C 157.382812 81.886719 157.5625 81.464844 157.710938 81 C 157.957031 80.25 158.71875 79.980469 158.6875 79.171875 C 158.683594 79.0625 158.542969 79.050781 158.507812 79.144531 C 158.277344 79.746094 157.992188 79.855469 157.699219 80.328125 C 157.273438 81.015625 157.28125 81.59375 156.515625 82.128906 C 155.390625 82.910156 153.839844 83.515625 152.460938 83.515625 C 152.355469 83.515625 152.355469 83.679688 152.460938 83.679688 C 153.15625 83.691406 153.835938 83.582031 154.492188 83.382812 C 154.515625 83.40625 154.546875 83.421875 154.578125 83.425781 C 155.734375 83.546875 156.898438 83.722656 158.058594 83.753906 C 159.21875 83.78125 160.386719 83.519531 161.539062 83.421875 C 161.636719 83.414062 161.636719 83.261719 161.539062 83.269531 Z M 161.539062 83.269531 " fill-opacity="1" fill-rule="nonzero"/><g clip-path="url(#852b4b36d9)"><path fill="#ffffff" d="M 164.542969 80.046875 C 163.878906 80.113281 163.03125 79.925781 162.339844 80.078125 C 162.484375 79.660156 162.433594 79.171875 162.363281 78.734375 C 162.226562 77.898438 161.417969 77.5625 161.195312 76.800781 C 161.125 76.550781 160.710938 76.589844 160.734375 76.863281 C 160.828125 77.875 159.851562 78.652344 159.855469 79.6875 C 159.855469 79.945312 159.90625 80.210938 160.023438 80.441406 C 159.367188 80.410156 158.554688 80.890625 157.976562 80.988281 C 157.882812 81.003906 157.902344 81.160156 157.996094 81.152344 C 158.382812 81.105469 158.75 81.046875 159.132812 80.964844 C 159.503906 80.882812 159.929688 80.894531 160.289062 80.769531 C 160.535156 80.929688 160.902344 80.941406 161.144531 81.082031 C 161.246094 81.144531 161.332031 80.992188 161.234375 80.925781 C 160.941406 80.730469 160.414062 80.585938 160.285156 80.230469 C 160.113281 79.765625 160.238281 79.234375 160.429688 78.808594 C 160.640625 78.347656 160.863281 77.960938 161.027344 77.523438 C 161.160156 77.703125 161.324219 77.867188 161.480469 78.042969 C 162.070312 78.6875 161.949219 79.542969 161.808594 80.324219 C 161.78125 80.484375 161.980469 80.644531 162.105469 80.496094 C 162.117188 80.484375 162.128906 80.464844 162.140625 80.449219 C 162.507812 80.445312 162.890625 80.367188 163.257812 80.328125 C 163.691406 80.28125 164.128906 80.257812 164.5625 80.1875 C 164.640625 80.175781 164.621094 80.042969 164.542969 80.046875 Z M 164.542969 80.046875 " fill-opacity="1" fill-rule="nonzero"/></g><g clip-path="url(#b357c3c0ac)"><g clip-path="url(#90ca2ceba9)"><g clip-path="url(#ed2ffc8150)"><path fill="#ffffff" d="M 142.34375 64.617188 C 141.484375 65.195312 140.582031 65.449219 139.707031 65.308594 C 138.085938 65.066406 136.433594 64.828125 134.867188 64.335938 C 130.46875 62.980469 126.121094 61.484375 121.960938 59.496094 C 120.226562 58.664062 118.617188 57.648438 117.402344 56.125 C 116.683594 55.234375 116.234375 54.21875 116.234375 53.0625 C 116.234375 52.160156 115.765625 51.582031 115.046875 51.144531 C 114.101562 50.566406 113.042969 50.410156 111.972656 50.324219 C 110.503906 50.210938 109.050781 50.3125 107.65625 50.75 C 107.332031 50.847656 107.007812 51.003906 106.738281 51.1875 C 106.046875 51.679688 105.863281 52.316406 106.414062 52.949219 C 107.472656 54.175781 108.574219 55.417969 109.8125 56.433594 C 118.164062 63.375 127.828125 67.648438 138.238281 70.359375 C 140.230469 70.878906 142.273438 71.261719 144.347656 71.019531 C 145.886719 70.835938 147.253906 70.316406 148.339844 69.171875 C 149.101562 68.382812 149.132812 67.421875 148.441406 66.5625 C 147.71875 65.675781 146.71875 65.179688 145.71875 64.6875 C 144.164062 63.925781 142.515625 63.261719 141.160156 62.246094 C 137.746094 59.707031 136.363281 56.378906 137.875 51.933594 C 137.929688 51.765625 138.015625 51.625 138.113281 51.382812 C 140.371094 52.933594 142.953125 53.457031 145.546875 53.9375 C 146 54.023438 146.464844 54.148438 146.917969 54.261719 C 149.539062 54.882812 151.769531 56.152344 153.546875 58.210938 C 155.648438 60.652344 156.324219 63.472656 155.734375 66.605469 C 155.480469 67.929688 154.730469 69.019531 153.703125 69.878906 C 153.433594 70.089844 153.347656 70.257812 153.417969 70.613281 C 153.660156 71.8125 153.519531 72.96875 152.96875 74.195312 C 152.261719 72.726562 151.261719 71.726562 149.808594 71.261719 C 148.707031 70.894531 147.566406 70.964844 146.449219 71.175781 C 145.066406 71.429688 143.6875 71.769531 142.273438 71.9375 C 139.480469 72.277344 136.757812 71.753906 134.078125 71.050781 C 127.292969 69.257812 121.101562 66.167969 115.5 61.976562 C 112.042969 59.394531 108.726562 56.589844 105.453125 53.765625 C 102.972656 51.625 100.179688 50.777344 96.960938 51.03125 C 91.980469 51.441406 87.425781 53.175781 83.023438 55.433594 C 81.640625 56.136719 80.34375 57.011719 78.988281 57.800781 C 78.847656 57.886719 78.691406 57.957031 78.480469 58.085938 C 82.726562 53.472656 92.234375 47.460938 103.097656 47.601562 C 102.871094 47.574219 102.660156 47.53125 102.449219 47.519531 C 100.320312 47.335938 98.203125 47.417969 96.101562 47.800781 C 95.113281 47.96875 94.15625 47.886719 93.179688 47.757812 C 87.328125 46.980469 81.457031 46.8125 75.589844 47.40625 C 71.851562 47.785156 68.125 48.378906 64.445312 48.871094 C 65.699219 48.320312 67.039062 47.6875 68.410156 47.164062 C 75.632812 44.457031 83.136719 43.414062 90.824219 43.539062 C 97.34375 43.652344 103.746094 44.808594 110.109375 46.179688 C 113.03125 46.8125 115.980469 47.390625 118.941406 47.925781 C 119.730469 48.066406 120.578125 47.957031 121.382812 47.855469 C 120.550781 47.503906 119.71875 47.121094 118.886719 46.769531 C 118.898438 46.699219 118.898438 46.613281 118.925781 46.53125 C 120.167969 46.613281 121.355469 46.503906 122.242188 45.78125 C 121.523438 45.597656 120.691406 45.472656 119.929688 45.160156 C 119.152344 44.835938 118.617188 44.160156 118.265625 43.441406 C 118.957031 43.679688 119.632812 43.992188 120.367188 44.160156 C 121.101562 44.328125 121.832031 44.246094 122.609375 43.78125 C 119.957031 42.960938 117.996094 41.453125 116.699219 39.109375 C 118.757812 40.71875 120.945312 41.890625 123.695312 41.480469 C 120.140625 39.898438 117.261719 37.558594 115.105469 34.242188 C 116.65625 35.34375 118.082031 36.457031 119.617188 37.429688 C 121.171875 38.417969 122.878906 39.136719 124.753906 39.292969 C 122.609375 38.082031 120.632812 36.667969 118.871094 34.960938 C 117.105469 33.253906 115.429688 31.492188 114.554688 29.121094 C 117.828125 32.59375 121.550781 35.355469 126.023438 37.0625 C 121.367188 33.734375 117.179688 29.96875 114.609375 24.71875 C 114.300781 24.101562 114.144531 23.410156 113.976562 22.730469 C 117.472656 28.035156 122.1875 31.957031 127.703125 34.960938 C 127.082031 34.453125 126.460938 33.945312 125.855469 33.394531 C 121.550781 29.546875 117.941406 25.144531 115.511719 19.867188 C 114.820312 18.359375 114.328125 16.765625 114.199219 14.914062 C 117.433594 22.039062 122.453125 27.484375 128.324219 32.253906 C 127.363281 31.125 126.363281 30.039062 125.445312 28.894531 C 121.242188 23.5625 117.726562 17.851562 116.050781 11.175781 C 115.542969 9.144531 115.328125 7.101562 115.753906 4.984375 C 117.53125 14.972656 123.285156 22.703125 129.875 29.96875 C 128.871094 28.515625 127.828125 27.078125 126.882812 25.59375 C 122.664062 19.007812 119.675781 11.953125 118.6875 4.136719 C 118.136719 0.457031 118.292969 -3.226562 119.351562 -6.851562 C 119.5625 -7.542969 119.84375 -8.21875 120.113281 -8.882812 C 120.140625 -8.996094 120.210938 -9.066406 120.308594 -9.25 C 120.351562 -9.066406 120.410156 -8.980469 120.410156 -8.898438 C 120.71875 -0.09375 123.019531 8.1875 126.855469 16.058594 C 129.070312 20.613281 131.496094 25.074219 133.808594 29.585938 C 135.53125 32.945312 137.195312 36.332031 138.15625 40 C 138.566406 41.566406 138.804688 43.1875 138.929688 44.808594 C 139.113281 47.136719 138.238281 49.226562 137.183594 51.242188 C 136.929688 51.722656 136.703125 52.203125 136.476562 52.679688 C 135.09375 55.445312 135.574219 57.984375 137.421875 60.371094 C 138.621094 61.9375 140.117188 63.175781 141.753906 64.25 C 141.949219 64.335938 142.089844 64.445312 142.34375 64.617188 Z M 151.175781 69.214844 C 151.796875 70.457031 152.433594 71.769531 153.066406 73.023438 C 153.746094 70.738281 153.164062 69.738281 151.175781 69.214844 Z M 150.878906 64.40625 C 152.109375 64.304688 152.402344 64.574219 152.390625 65.660156 C 152.769531 64.914062 152.714844 64.261719 152.207031 63.980469 C 151.640625 63.699219 151.21875 63.925781 150.878906 64.40625 Z M 150.878906 64.40625 " fill-opacity="1" fill-rule="nonzero"/></g></g></g><path fill="#ffffff" d="M 31.320312 76.183594 C 33.242188 76.476562 34.816406 77.925781 36.34375 79.058594 C 34.84375 78.992188 33.34375 79.082031 31.855469 79.210938 C 31.21875 78.652344 30.683594 77.925781 30.480469 77.097656 C 30.339844 76.578125 30.785156 76.105469 31.320312 76.183594 Z M 31.320312 76.183594 " fill-opacity="1" fill-rule="nonzero"/><path fill="#ffffff" d="M 43.445312 81.15625 C 42.882812 81.832031 42.042969 82.25 41.101562 82.25 C 39.742188 82.25 38.570312 81.347656 38.191406 80.101562 C 36.34375 79.882812 34.460938 79.832031 32.605469 79.972656 C 33.355469 80.824219 34.246094 81.527344 35.136719 82.226562 C 35.136719 82.226562 34.867188 82.886719 34.84375 82.949219 C 34.765625 83.21875 34.714844 83.484375 34.730469 83.765625 C 34.742188 84.324219 34.945312 84.859375 35.46875 85.125 C 36.332031 85.570312 37.566406 85.394531 38.050781 84.476562 C 38.367188 83.867188 38.113281 83.203125 38.011719 82.570312 C 40.148438 82.378906 42.691406 83.152344 44.472656 81.640625 C 44.21875 81.511719 43.710938 81.285156 43.445312 81.15625 Z M 36.421875 84.476562 C 35.976562 84.476562 35.632812 84.121094 35.632812 83.6875 C 35.632812 83.257812 35.988281 82.898438 36.421875 82.898438 C 36.855469 82.898438 37.210938 83.257812 37.210938 83.6875 C 37.210938 84.121094 36.867188 84.476562 36.421875 84.476562 Z M 36.421875 84.476562 " fill-opacity="1" fill-rule="nonzero"/><g clip-path="url(#070b783af5)"><path fill="#ffffff" d="M 48.558594 61.679688 C 48.035156 61.972656 47.515625 62.265625 47.019531 62.59375 C 42.234375 65.863281 37.4375 69.121094 32.644531 72.378906 C 27.960938 75.558594 23.265625 78.738281 18.570312 81.921875 C 18.585938 83.804688 18.585938 85.699219 18.570312 87.582031 C 20.722656 87.582031 22.871094 87.570312 25.023438 87.605469 C 25.023438 88.117188 25.023438 88.625 25.007812 89.132812 C 25.007812 90.152344 25.007812 91.183594 25.035156 92.199219 C 26.34375 92.175781 27.65625 92.175781 28.980469 92.1875 C 28.902344 88.445312 28.773438 84.695312 28.738281 80.953125 C 28.519531 79.808594 30.085938 79.910156 30.503906 79.210938 C 30.023438 78.34375 29.511719 77.46875 29.449219 76.488281 C 29.410156 76.003906 29.664062 75.535156 30.097656 75.316406 C 30.542969 75.089844 31.242188 74.972656 32.234375 75.457031 C 34.476562 76.195312 36.191406 77.9375 38.0625 79.3125 C 38.0625 79.273438 38.0625 79.234375 38.0625 79.199219 C 38.0625 77.519531 39.421875 76.15625 41.101562 76.15625 C 42.78125 76.15625 44.144531 77.519531 44.144531 79.199219 C 44.144531 79.628906 44.054688 80.039062 43.890625 80.417969 C 44.460938 80.710938 45.070312 80.953125 45.515625 81.425781 C 45.773438 81.882812 45.566406 82.429688 45.53125 82.914062 C 44.933594 85.992188 44.410156 89.09375 43.8125 92.175781 C 45.378906 92.175781 46.953125 92.175781 48.53125 92.1875 C 48.621094 82.023438 48.570312 71.84375 48.558594 61.679688 Z M 38.839844 75.597656 C 37.871094 75.597656 37.09375 74.820312 37.09375 73.855469 C 37.09375 72.898438 37.871094 72.113281 38.839844 72.113281 C 39.792969 72.113281 40.582031 72.886719 40.582031 73.855469 C 40.582031 74.820312 39.804688 75.597656 38.839844 75.597656 Z M 43.292969 71.933594 C 42.453125 71.933594 41.765625 71.246094 41.765625 70.40625 C 41.765625 69.566406 42.453125 68.878906 43.292969 68.878906 C 44.128906 68.878906 44.816406 69.566406 44.816406 70.40625 C 44.816406 71.246094 44.144531 71.933594 43.292969 71.933594 Z M 43.292969 71.933594 " fill-opacity="1" fill-rule="nonzero"/></g><g clip-path="url(#e4062e1044)"><path fill="#ffffff" d="M 51.535156 63.621094 C 51.535156 62.910156 51.585938 62.195312 51.648438 61.484375 C 56.929688 65.097656 62.246094 68.660156 67.527344 72.285156 C 69.703125 73.761719 71.878906 75.238281 74.066406 76.710938 C 72.296875 77.640625 70.414062 78.265625 68.554688 79.003906 C 63.367188 81.0625 58.136719 82.996094 52.984375 85.160156 C 53.097656 85.390625 53.316406 85.820312 53.429688 86.050781 C 59.015625 83.796875 64.652344 81.660156 70.273438 79.472656 C 72.167969 78.835938 73.949219 77.769531 75.960938 77.539062 C 75.183594 78.570312 73.847656 78.800781 72.730469 79.269531 C 68.949219 80.757812 65.160156 82.15625 61.40625 83.710938 C 58.8125 84.675781 56.230469 85.695312 53.660156 86.726562 C 53.761719 87.003906 53.964844 87.550781 54.078125 87.820312 C 55.148438 87.527344 56.164062 86.929688 57.296875 86.878906 C 60.082031 87.335938 62.984375 86.570312 65.695312 87.617188 C 65.65625 88.238281 65.617188 88.847656 65.59375 89.472656 C 66.011719 89.511719 66.433594 89.550781 66.851562 89.585938 C 67.195312 90.414062 67.539062 91.242188 67.871094 92.066406 C 62.4375 92.082031 56.992188 92.105469 51.558594 92.066406 C 51.523438 82.566406 51.523438 73.085938 51.535156 63.621094 Z M 56.609375 68.992188 C 56.40625 69.742188 56.203125 70.492188 55.910156 71.214844 C 55.414062 71.382812 54.917969 71.558594 54.421875 71.738281 C 54.96875 71.941406 55.515625 72.144531 56.078125 72.335938 C 56.230469 73.023438 56.40625 73.710938 56.609375 74.398438 C 56.789062 73.699219 56.914062 72.996094 57.042969 72.296875 C 57.730469 72.054688 58.429688 71.839844 59.140625 71.699219 C 58.457031 71.574219 57.78125 71.382812 57.105469 71.203125 C 56.929688 70.464844 56.777344 69.726562 56.609375 68.992188 Z M 62.804688 75.070312 C 62.015625 75.339844 61.214844 75.582031 60.425781 75.835938 C 61.191406 76.050781 61.964844 76.242188 62.742188 76.40625 C 63.035156 77.398438 63.289062 78.40625 63.59375 79.382812 C 63.835938 78.378906 64.066406 77.386719 64.394531 76.40625 C 65.183594 76.242188 65.972656 76.0625 66.75 75.835938 C 65.949219 75.566406 65.132812 75.324219 64.332031 75.070312 C 64.054688 74.144531 63.835938 73.203125 63.59375 72.273438 C 63.289062 73.203125 63.0625 74.144531 62.804688 75.070312 Z M 62.804688 75.070312 " fill-opacity="1" fill-rule="nonzero"/></g><g clip-path="url(#7a2c0723d5)"><path fill="#ffffff" d="M 73.9375 80.171875 C 74.980469 79.753906 76.035156 79.308594 77.054688 78.8125 C 77.195312 78.902344 77.488281 79.066406 77.628906 79.15625 C 78.949219 80.007812 80.234375 80.921875 81.546875 81.800781 C 81.546875 83.683594 81.546875 85.578125 81.546875 87.460938 C 79.394531 87.476562 77.257812 87.4375 75.109375 87.488281 C 75.09375 88.796875 75.121094 90.097656 75.148438 91.40625 C 75.132812 91.570312 75.09375 91.902344 75.070312 92.066406 C 73.316406 92.066406 71.546875 92.09375 69.789062 92.015625 C 69.433594 91.011719 68.949219 90.046875 68.722656 89.003906 C 68.898438 88.542969 69.191406 88.125 69.433594 87.691406 C 68.988281 87.375 68.554688 87.054688 68.109375 86.738281 C 68.441406 86.113281 68.785156 85.503906 69.191406 84.929688 C 70.65625 83.226562 72.753906 82.132812 73.9375 80.171875 Z M 73.9375 80.171875 " fill-opacity="1" fill-rule="nonzero"/></g><path fill="#ffffff" d="M 38.34375 100.367188 C 39.09375 100.660156 40.125 100.660156 40.570312 101.4375 C 40.59375 102.453125 39.371094 102.734375 38.710938 103.230469 C 38.558594 102.277344 38.429688 101.324219 38.34375 100.367188 Z M 38.34375 100.367188 " fill-opacity="1" fill-rule="nonzero"/><g clip-path="url(#fedea82386)"><path fill="#ffffff" d="M 48.570312 100.445312 C 46.21875 100.699219 43.875 101.003906 41.523438 101.234375 C 43.863281 100.34375 46.242188 99.554688 48.597656 98.6875 C 48.582031 98.230469 48.570312 97.773438 48.558594 97.316406 C 46.21875 98.382812 43.902344 99.554688 41.511719 100.546875 C 43.699219 98.828125 46 97.25 48.203125 95.535156 C 40.480469 95.519531 32.746094 95.535156 25.023438 95.535156 C 25.007812 98.738281 25.023438 101.945312 25.023438 105.152344 C 25.734375 104.210938 26.484375 103.230469 27.441406 102.519531 C 27.949219 102.1875 28.980469 101.679688 30.734375 101.488281 C 33.074219 101.183594 35.417969 100.839844 37.769531 100.558594 C 37.871094 101.449219 37.984375 102.328125 38.101562 103.207031 C 37.539062 103.292969 36.96875 103.382812 36.410156 103.472656 C 36.890625 104.679688 37.414062 105.929688 38.328125 106.882812 C 38.976562 107.605469 39.984375 108.027344 40.25 109.03125 C 37.234375 108.816406 34.957031 106.425781 33.925781 103.738281 C 33.140625 105.433594 33.292969 107.351562 33.050781 109.160156 C 31.675781 109.363281 30.300781 109.542969 28.929688 109.71875 C 28.585938 108.992188 28.242188 108.257812 27.898438 107.53125 C 26.957031 107.660156 25.976562 107.683594 25.074219 107.988281 C 24.957031 111.195312 25.097656 114.402344 24.996094 117.605469 C 25.035156 118.675781 25.035156 119.730469 25.035156 120.800781 C 25.734375 120.800781 26.421875 120.800781 27.121094 120.8125 C 27.285156 118.613281 27.59375 116.359375 28.738281 114.4375 C 27.578125 113.917969 27.746094 112.402344 28.050781 111.410156 C 28.585938 110.125 30.097656 110.0625 31.28125 109.898438 C 32.222656 109.832031 33.316406 109.476562 34.15625 110.113281 C 35.125 110.761719 35.175781 112.023438 35.402344 113.050781 C 35.148438 113.21875 34.894531 113.382812 34.652344 113.546875 C 36.714844 115.457031 37.605469 118.21875 38.417969 120.824219 C 41.816406 120.800781 45.210938 120.863281 48.609375 120.800781 C 48.609375 115.035156 48.597656 109.273438 48.609375 103.511719 C 46.253906 102.9375 43.902344 102.328125 41.535156 101.820312 C 43.890625 101.71875 46.253906 101.667969 48.609375 101.652344 C 48.582031 101.246094 48.570312 100.839844 48.570312 100.445312 Z M 38.710938 103.230469 C 38.558594 102.277344 38.429688 101.324219 38.34375 100.367188 C 39.09375 100.660156 40.125 100.660156 40.570312 101.4375 C 40.582031 102.453125 39.359375 102.734375 38.710938 103.230469 Z M 38.710938 103.230469 " fill-opacity="1" fill-rule="nonzero"/></g><g clip-path="url(#bab21e88de)"><path fill="#ffffff" d="M 51.457031 95.558594 C 54.382812 95.496094 57.324219 95.496094 60.25 95.546875 C 59.867188 96.03125 59.472656 96.5 59.117188 96.996094 C 58.722656 97.722656 58.417969 98.5 58.125 99.261719 C 57.960938 99.324219 57.628906 99.441406 57.476562 99.503906 C 57.488281 100.546875 57.566406 101.601562 57.359375 102.632812 C 56.484375 106.882812 55.605469 111.144531 54.765625 115.40625 C 54.5625 116.4375 54.089844 117.390625 53.632812 118.332031 C 52.894531 118.304688 52.144531 118.269531 51.40625 118.242188 C 51.558594 110.671875 51.445312 103.117188 51.457031 95.558594 Z M 51.457031 95.558594 " fill-opacity="1" fill-rule="nonzero"/></g><g clip-path="url(#c89303aa15)"><path fill="#ffffff" d="M 60.171875 97.214844 C 60.808594 96.515625 61.457031 95.496094 62.527344 95.523438 C 64.21875 95.46875 65.910156 95.546875 67.601562 95.507812 C 68.226562 96.042969 68.847656 96.589844 69.394531 97.199219 C 70.542969 98.90625 70.832031 100.992188 70.707031 103.003906 C 70.578125 103.117188 70.324219 103.34375 70.199219 103.472656 C 70.183594 103.6875 70.171875 104.121094 70.160156 104.351562 C 69.957031 104.363281 69.546875 104.390625 69.34375 104.402344 C 69.117188 105.011719 68.949219 105.660156 68.605469 106.21875 C 67.652344 107.058594 66.484375 107.632812 65.667969 108.625 C 63.0625 111.539062 62.171875 115.558594 61.8125 119.351562 C 61.484375 119.402344 61.152344 119.453125 60.820312 119.503906 C 60.746094 119.933594 60.65625 120.355469 60.578125 120.789062 C 60.210938 120.773438 59.84375 120.761719 59.472656 120.710938 C 59.410156 120.597656 59.292969 120.355469 59.230469 120.242188 C 59.003906 119.78125 58.773438 119.324219 58.542969 118.878906 C 57.640625 118.765625 56.738281 118.664062 55.835938 118.574219 C 55.820312 117.554688 55.734375 116.527344 55.972656 115.53125 C 56.878906 111.195312 57.742188 106.84375 58.644531 102.507812 C 58.785156 101.335938 59.957031 100.28125 59.359375 99.070312 C 59.585938 98.433594 59.855469 97.8125 60.171875 97.214844 Z M 60.171875 97.214844 " fill-opacity="1" fill-rule="nonzero"/></g><g clip-path="url(#079e39a98d)"><path fill="#ffffff" d="M 69.28125 95.546875 C 71.191406 95.558594 73.125 95.382812 75.019531 95.648438 C 75.082031 104.019531 75.019531 112.390625 75.042969 120.761719 C 74.574219 120.773438 74.101562 120.773438 73.632812 120.789062 C 73.683594 120.597656 73.773438 120.203125 73.8125 120 C 74.359375 118.253906 73.46875 116.550781 72.03125 115.570312 C 72.410156 111.945312 72.601562 108.308594 72.894531 104.679688 C 72.691406 104.65625 72.296875 104.605469 72.105469 104.578125 C 71.648438 101.921875 71.992188 98.945312 70.25 96.667969 C 69.941406 96.285156 69.613281 95.914062 69.28125 95.546875 Z M 69.28125 95.546875 " fill-opacity="1" fill-rule="nonzero"/></g><g clip-path="url(#50e753a7b1)"><path fill="#ffffff" d="M 72.257812 118.917969 C 72.257812 119.160156 72.210938 119.398438 72.117188 119.625 C 72.023438 119.847656 71.890625 120.046875 71.71875 120.222656 C 71.546875 120.394531 71.347656 120.527344 71.121094 120.621094 C 70.894531 120.714844 70.660156 120.761719 70.414062 120.761719 C 70.167969 120.761719 69.933594 120.714844 69.707031 120.621094 C 69.480469 120.527344 69.28125 120.394531 69.109375 120.222656 C 68.9375 120.046875 68.804688 119.847656 68.710938 119.625 C 68.617188 119.398438 68.570312 119.160156 68.570312 118.917969 C 68.570312 118.671875 68.617188 118.4375 68.710938 118.210938 C 68.804688 117.984375 68.9375 117.785156 69.109375 117.613281 C 69.28125 117.441406 69.480469 117.304688 69.707031 117.214844 C 69.933594 117.121094 70.167969 117.074219 70.414062 117.074219 C 70.660156 117.074219 70.894531 117.121094 71.121094 117.214844 C 71.347656 117.304688 71.546875 117.441406 71.71875 117.613281 C 71.890625 117.785156 72.023438 117.984375 72.117188 118.210938 C 72.210938 118.4375 72.257812 118.671875 72.257812 118.917969 Z M 72.257812 118.917969 " fill-opacity="1" fill-rule="nonzero"/></g><path fill="#ff3131" d="M 204.320312 122.410156 L 352.0625 122.410156 L 352.0625 138.726562 L 204.320312 138.726562 L 204.320312 122.410156 " fill-opacity="1" fill-rule="nonzero"/><g fill="#ffffff" fill-opacity="1"><g transform="translate(205.760372, 134.88649)"><g><path d="M 5.09375 -6.90625 C 4.59375 -6.90625 4.144531 -6.75 3.75 -6.4375 C 3.351562 -6.132812 3.035156 -5.6875 2.796875 -5.09375 C 2.554688 -4.507812 2.4375 -3.878906 2.4375 -3.203125 C 2.4375 -2.578125 2.5625 -2.109375 2.8125 -1.796875 C 3.070312 -1.492188 3.484375 -1.34375 4.046875 -1.34375 C 4.597656 -1.34375 5.234375 -1.488281 5.953125 -1.78125 L 5.953125 -0.328125 C 5.203125 -0.0351562 4.453125 0.109375 3.703125 0.109375 C 2.753906 0.109375 2.015625 -0.164062 1.484375 -0.71875 C 0.953125 -1.28125 0.6875 -2.078125 0.6875 -3.109375 C 0.6875 -4.085938 0.878906 -4.988281 1.265625 -5.8125 C 1.660156 -6.644531 2.179688 -7.273438 2.828125 -7.703125 C 3.484375 -8.128906 4.238281 -8.34375 5.09375 -8.34375 C 5.5625 -8.34375 5.972656 -8.300781 6.328125 -8.21875 C 6.691406 -8.132812 7.082031 -7.984375 7.5 -7.765625 L 6.84375 -6.359375 C 6.445312 -6.578125 6.117188 -6.722656 5.859375 -6.796875 C 5.597656 -6.867188 5.34375 -6.90625 5.09375 -6.90625 Z M 5.09375 -6.90625 "/></g></g></g><g fill="#ffffff" fill-opacity="1"><g transform="translate(215.685826, 134.88649)"><g><path d="M 0.296875 0 L 2.03125 -8.21875 L 3.75 -8.21875 L 2.3125 -1.4375 L 5.203125 -1.4375 L 4.890625 0 Z M 0.296875 0 "/></g></g></g><g fill="#ffffff" fill-opacity="1"><g transform="translate(224.531569, 134.88649)"><g><path d="M 4.890625 0 L 0.296875 0 L 2.03125 -8.21875 L 6.640625 -8.21875 L 6.328125 -6.796875 L 3.453125 -6.796875 L 3.078125 -4.984375 L 5.765625 -4.984375 L 5.453125 -3.5625 L 2.765625 -3.5625 L 2.3125 -1.4375 L 5.203125 -1.4375 Z M 4.890625 0 "/></g></g></g><g fill="#ffffff" fill-opacity="1"><g transform="translate(233.652864, 134.88649)"><g><path d="M 4.734375 -1.953125 L 2.078125 -1.953125 L 1.109375 0 L -0.6875 0 L 3.609375 -8.25 L 5.71875 -8.25 L 6.546875 0 L 4.875 0 Z M 4.65625 -3.421875 L 4.5 -5.390625 C 4.46875 -5.878906 4.453125 -6.351562 4.453125 -6.8125 L 4.453125 -7.015625 C 4.285156 -6.566406 4.078125 -6.085938 3.828125 -5.578125 L 2.78125 -3.421875 Z M 4.65625 -3.421875 "/></g></g></g><g fill="#ffffff" fill-opacity="1"><g transform="translate(243.763893, 134.88649)"><g><path d="M 7.015625 0 L 5.09375 0 L 3.09375 -6.21875 L 3.046875 -6.21875 L 3.03125 -6.03125 C 2.90625 -5.226562 2.78125 -4.507812 2.65625 -3.875 L 1.84375 0 L 0.296875 0 L 2.03125 -8.21875 L 4.046875 -8.21875 L 5.953125 -2.171875 L 5.984375 -2.171875 C 6.023438 -2.453125 6.09375 -2.851562 6.1875 -3.375 C 6.289062 -3.90625 6.628906 -5.519531 7.203125 -8.21875 L 8.75 -8.21875 Z M 7.015625 0 "/></g></g></g><g fill="#ffffff" fill-opacity="1"><g transform="translate(255.337027, 134.88649)"><g><path d="M 0.296875 0 L 2.046875 -8.21875 L 3.765625 -8.21875 L 2.015625 0 Z M 0.296875 0 "/></g></g></g><g fill="#ffffff" fill-opacity="1"><g transform="translate(261.92213, 134.88649)"><g><path d="M 7.015625 0 L 5.09375 0 L 3.09375 -6.21875 L 3.046875 -6.21875 L 3.03125 -6.03125 C 2.90625 -5.226562 2.78125 -4.507812 2.65625 -3.875 L 1.84375 0 L 0.296875 0 L 2.03125 -8.21875 L 4.046875 -8.21875 L 5.953125 -2.171875 L 5.984375 -2.171875 C 6.023438 -2.453125 6.09375 -2.851562 6.1875 -3.375 C 6.289062 -3.90625 6.628906 -5.519531 7.203125 -8.21875 L 8.75 -8.21875 Z M 7.015625 0 "/></g></g></g><g fill="#ffffff" fill-opacity="1"><g transform="translate(273.495265, 134.88649)"><g><path d="M 4.234375 -4.609375 L 7.40625 -4.609375 L 6.5 -0.328125 C 5.988281 -0.160156 5.519531 -0.046875 5.09375 0.015625 C 4.664062 0.078125 4.210938 0.109375 3.734375 0.109375 C 2.765625 0.109375 2.015625 -0.164062 1.484375 -0.71875 C 0.953125 -1.269531 0.6875 -2.0625 0.6875 -3.09375 C 0.6875 -4.09375 0.882812 -5 1.28125 -5.8125 C 1.6875 -6.625 2.253906 -7.25 2.984375 -7.6875 C 3.710938 -8.125 4.550781 -8.34375 5.5 -8.34375 C 6.320312 -8.34375 7.09375 -8.160156 7.8125 -7.796875 L 7.15625 -6.375 C 6.882812 -6.53125 6.609375 -6.648438 6.328125 -6.734375 C 6.054688 -6.828125 5.753906 -6.875 5.421875 -6.875 C 4.847656 -6.875 4.332031 -6.71875 3.875 -6.40625 C 3.425781 -6.09375 3.070312 -5.648438 2.8125 -5.078125 C 2.5625 -4.503906 2.4375 -3.882812 2.4375 -3.21875 C 2.4375 -2.570312 2.570312 -2.097656 2.84375 -1.796875 C 3.113281 -1.492188 3.53125 -1.34375 4.09375 -1.34375 C 4.382812 -1.34375 4.707031 -1.390625 5.0625 -1.484375 L 5.421875 -3.171875 L 3.921875 -3.171875 Z M 4.234375 -4.609375 "/></g></g></g><g fill="#ffffff" fill-opacity="1"><g transform="translate(284.320476, 134.88649)"><g/></g></g><g fill="#ffffff" fill-opacity="1"><g transform="translate(290.191395, 134.88649)"><g><path d="M 5.3125 -2.421875 C 5.3125 -1.640625 5.035156 -1.019531 4.484375 -0.5625 C 3.929688 -0.113281 3.179688 0.109375 2.234375 0.109375 C 1.398438 0.109375 0.734375 -0.0546875 0.234375 -0.390625 L 0.234375 -1.9375 C 0.953125 -1.53125 1.625 -1.328125 2.25 -1.328125 C 2.664062 -1.328125 2.988281 -1.40625 3.21875 -1.5625 C 3.457031 -1.726562 3.578125 -1.945312 3.578125 -2.21875 C 3.578125 -2.382812 3.550781 -2.523438 3.5 -2.640625 C 3.457031 -2.765625 3.390625 -2.878906 3.296875 -2.984375 C 3.203125 -3.085938 2.96875 -3.28125 2.59375 -3.5625 C 2.070312 -3.925781 1.707031 -4.289062 1.5 -4.65625 C 1.289062 -5.019531 1.1875 -5.414062 1.1875 -5.84375 C 1.1875 -6.320312 1.300781 -6.75 1.53125 -7.125 C 1.769531 -7.507812 2.101562 -7.804688 2.53125 -8.015625 C 2.957031 -8.234375 3.453125 -8.34375 4.015625 -8.34375 C 4.828125 -8.34375 5.566406 -8.15625 6.234375 -7.78125 L 5.625 -6.46875 C 5.039062 -6.75 4.503906 -6.890625 4.015625 -6.890625 C 3.703125 -6.890625 3.445312 -6.800781 3.25 -6.625 C 3.050781 -6.457031 2.953125 -6.238281 2.953125 -5.96875 C 2.953125 -5.738281 3.007812 -5.535156 3.125 -5.359375 C 3.25 -5.191406 3.53125 -4.96875 3.96875 -4.6875 C 4.414062 -4.382812 4.75 -4.050781 4.96875 -3.6875 C 5.195312 -3.332031 5.3125 -2.910156 5.3125 -2.421875 Z M 5.3125 -2.421875 "/></g></g></g><g fill="#ffffff" fill-opacity="1"><g transform="translate(299.172103, 134.88649)"><g><path d="M 4.890625 0 L 0.296875 0 L 2.03125 -8.21875 L 6.640625 -8.21875 L 6.328125 -6.796875 L 3.453125 -6.796875 L 3.078125 -4.984375 L 5.765625 -4.984375 L 5.453125 -3.5625 L 2.765625 -3.5625 L 2.3125 -1.4375 L 5.203125 -1.4375 Z M 4.890625 0 "/></g></g></g><g fill="#ffffff" fill-opacity="1"><g transform="translate(308.293398, 134.88649)"><g><path d="M 2.984375 -4.578125 L 3.421875 -4.578125 C 3.910156 -4.578125 4.289062 -4.679688 4.5625 -4.890625 C 4.832031 -5.109375 4.96875 -5.4375 4.96875 -5.875 C 4.96875 -6.175781 4.878906 -6.40625 4.703125 -6.5625 C 4.523438 -6.71875 4.25 -6.796875 3.875 -6.796875 L 3.453125 -6.796875 Z M 2.6875 -3.15625 L 2.015625 0 L 0.296875 0 L 2.03125 -8.21875 L 4.046875 -8.21875 C 4.941406 -8.21875 5.609375 -8.023438 6.046875 -7.640625 C 6.492188 -7.265625 6.71875 -6.707031 6.71875 -5.96875 C 6.71875 -5.375 6.5625 -4.863281 6.25 -4.4375 C 5.945312 -4.007812 5.503906 -3.691406 4.921875 -3.484375 L 6.375 0 L 4.515625 0 L 3.34375 -3.15625 Z M 2.6875 -3.15625 "/></g></g></g><g fill="#ffffff" fill-opacity="1"><g transform="translate(318.18511, 134.88649)"><g><path d="M 3.015625 -1.6875 C 3.304688 -2.507812 3.507812 -3.035156 3.625 -3.265625 L 6.0625 -8.21875 L 7.828125 -8.21875 L 3.625 0 L 1.75 0 L 1.03125 -8.21875 L 2.6875 -8.21875 L 2.984375 -3.265625 C 2.992188 -3.097656 3 -2.851562 3 -2.53125 C 2.988281 -2.144531 2.976562 -1.863281 2.96875 -1.6875 Z M 3.015625 -1.6875 "/></g></g></g><g fill="#ffffff" fill-opacity="1"><g transform="translate(327.857506, 134.88649)"><g><path d="M 0.296875 0 L 2.046875 -8.21875 L 3.765625 -8.21875 L 2.015625 0 Z M 0.296875 0 "/></g></g></g><g fill="#ffffff" fill-opacity="1"><g transform="translate(334.442609, 134.88649)"><g><path d="M 5.09375 -6.90625 C 4.59375 -6.90625 4.144531 -6.75 3.75 -6.4375 C 3.351562 -6.132812 3.035156 -5.6875 2.796875 -5.09375 C 2.554688 -4.507812 2.4375 -3.878906 2.4375 -3.203125 C 2.4375 -2.578125 2.5625 -2.109375 2.8125 -1.796875 C 3.070312 -1.492188 3.484375 -1.34375 4.046875 -1.34375 C 4.597656 -1.34375 5.234375 -1.488281 5.953125 -1.78125 L 5.953125 -0.328125 C 5.203125 -0.0351562 4.453125 0.109375 3.703125 0.109375 C 2.753906 0.109375 2.015625 -0.164062 1.484375 -0.71875 C 0.953125 -1.28125 0.6875 -2.078125 0.6875 -3.109375 C 0.6875 -4.085938 0.878906 -4.988281 1.265625 -5.8125 C 1.660156 -6.644531 2.179688 -7.273438 2.828125 -7.703125 C 3.484375 -8.128906 4.238281 -8.34375 5.09375 -8.34375 C 5.5625 -8.34375 5.972656 -8.300781 6.328125 -8.21875 C 6.691406 -8.132812 7.082031 -7.984375 7.5 -7.765625 L 6.84375 -6.359375 C 6.445312 -6.578125 6.117188 -6.722656 5.859375 -6.796875 C 5.597656 -6.867188 5.34375 -6.90625 5.09375 -6.90625 Z M 5.09375 -6.90625 "/></g></g></g><g fill="#ffffff" fill-opacity="1"><g transform="translate(344.368062, 134.88649)"><g><path d="M 4.890625 0 L 0.296875 0 L 2.03125 -8.21875 L 6.640625 -8.21875 L 6.328125 -6.796875 L 3.453125 -6.796875 L 3.078125 -4.984375 L 5.765625 -4.984375 L 5.453125 -3.5625 L 2.765625 -3.5625 L 2.3125 -1.4375 L 5.203125 -1.4375 Z M 4.890625 0 "/></g></g></g></svg>